<svg width="18" height="18" viewBox="0 0 18 18" fill="none" xmlns="http://www.w3.org/2000/svg">
<path d="M0 9C0 4.02975 4.02975 0 9 0C13.9703 0 18 4.02975 18 9C18 13.9703 13.9703 18 9 18C4.032 17.994 0.006 13.968 0 9.00075V9ZM1.8 9C1.8 12.9765 5.0235 16.2 9 16.2C12.9765 16.2 16.2 12.9765 16.2 9C16.2 5.0235 12.9765 1.8 9 1.8C5.02575 1.8045 1.8045 5.02575 1.8 8.99925V9ZM4.8 9C4.8 6.68025 6.68025 4.8 9 4.8C11.3197 4.8 13.2 6.68025 13.2 9C13.2 11.3197 11.3197 13.2 9 13.2C6.68025 13.2 4.8 11.3197 4.8 9Z" fill="#525252"/>
</svg>
