<svg xmlns="http://www.w3.org/2000/svg" width="24" height="24" viewBox="0 0 24 24" fill="none">
  <path d="M23.1213 9.87866C24.2929 11.0502 24.2929 12.9497 23.1213 14.1213C21.9497 15.2929 20.0502 15.2929 18.8787 14.1213C17.7071 12.9497 17.7071 11.0502 18.8787 9.87866C20.0502 8.70709 21.9497 8.70709 23.1213 9.87866Z" fill="#7B8497"/>
  <path d="M14.1213 9.87866C15.2929 11.0502 15.2929 12.9497 14.1213 14.1213C12.9497 15.2929 11.0502 15.2929 9.87868 14.1213C8.70711 12.9497 8.70711 11.0502 9.87868 9.87866C11.0502 8.70709 12.9497 8.70709 14.1213 9.87866Z" fill="#7B8497"/>
  <path d="M5.12137 9.87866C6.29294 11.0502 6.29294 12.9497 5.12137 14.1213C3.9498 15.2929 2.05031 15.2929 0.878737 14.1213C-0.292831 12.9497 -0.292831 11.0502 0.878737 9.87866C2.05031 8.70709 3.9498 8.70709 5.12137 9.87866Z" fill="#7B8497"/>
</svg>