<svg width="20" height="18" viewBox="0 0 20 18" fill="none" xmlns="http://www.w3.org/2000/svg">
<path fill-rule="evenodd" clip-rule="evenodd" d="M11.7647 13.4118C11.7647 11.1375 13.6079 9.29411 15.8824 9.29411C18.1566 9.29411 20 11.1374 20 13.4118C20 15.686 18.1568 17.5294 15.8824 17.5294C13.6081 17.5294 11.7647 15.6862 11.7647 13.4118ZM12.9412 13.4118C12.9412 15.0364 14.2578 16.3529 15.8824 16.3529C17.507 16.3529 18.8235 15.0363 18.8235 13.4118C18.8235 11.7871 17.5069 10.4706 15.8824 10.4706C14.2577 10.4706 12.9412 11.7872 12.9412 13.4118ZM15.2941 12.8235V12.2353C15.2941 11.9104 15.5575 11.6471 15.8824 11.6471C16.2072 11.6471 16.4706 11.9104 16.4706 12.2353V12.8235H17.0588C17.3837 12.8235 17.6471 13.0869 17.6471 13.4118C17.6471 13.7366 17.3837 14 17.0588 14H16.4706V14.5882C16.4706 14.9131 16.2072 15.1765 15.8824 15.1765C15.5575 15.1765 15.2941 14.9131 15.2941 14.5882V14H14.7059C14.381 14 14.1176 13.7366 14.1176 13.4118C14.1176 13.0869 14.381 12.8235 14.7059 12.8235H15.2941ZM10.2941 14.5882C10.619 14.5882 10.8824 14.8516 10.8824 15.1765C10.8824 15.5013 10.619 15.7647 10.2941 15.7647H2.35461C1.05501 15.7647 0 14.7105 0 13.4129V2.82163C0 1.52312 1.05262 0.470581 2.35127 0.470581H7.35149C7.88776 0.470581 8.47734 0.811456 8.74273 1.2759L9.33757 2.31687C9.39296 2.4138 9.59244 2.5294 9.70332 2.5294H15.8804C17.1801 2.5294 18.2353 3.58344 18.2353 4.88095V7.82352C18.2353 8.1484 17.9719 8.41176 17.6471 8.41176C17.3222 8.41176 17.0588 8.1484 17.0588 7.82352V4.88095C17.0588 4.23347 16.5306 3.70588 15.8804 3.70588H9.70332C9.17052 3.70588 8.58108 3.36429 8.31609 2.90056L7.72125 1.85959C7.66568 1.76234 7.4663 1.64705 7.35149 1.64705H2.35127C1.70235 1.64705 1.17647 2.17289 1.17647 2.82163V13.4129C1.17647 14.0606 1.70456 14.5882 2.35461 14.5882H10.2941Z" fill="black"/>
</svg>
