<svg width="18" height="20" viewBox="0 0 18 20" fill="none" xmlns="http://www.w3.org/2000/svg">
<path d="M17 16.5L3 16.5L3 17C3 17.8284 3.67157 18.5 4.5 18.5L15.5 18.5C16.3284 18.5 17 17.8284 17 17L17 16.5ZM18 16L18 17C18 18.3807 16.8807 19.5 15.5 19.5L4.5 19.5C3.11929 19.5 2 18.3807 2 17L2 16C2 15.7239 2.22386 15.5 2.5 15.5L17.5 15.5C17.7761 15.5 18 15.7239 18 16ZM18 11L18 14C18 14.2761 17.7761 14.5 17.5 14.5L2.5 14.5C2.22386 14.5 2 14.2761 2 14L2 11C2 10.7239 2.22386 10.5 2.5 10.5L17.5 10.5C17.7761 10.5 18 10.7239 18 11ZM17 11.5L3 11.5L3 13.5L17 13.5L17 11.5ZM16 6L16 9C16 9.27614 15.7761 9.5 15.5 9.5L0.499999 9.5C0.223857 9.5 -8.93798e-07 9.27614 -9.17939e-07 9L-1.18021e-06 6C-1.20435e-06 5.72386 0.223857 5.5 0.499999 5.5L15.5 5.5C15.7761 5.5 16 5.72386 16 6ZM15 6.5L0.999999 6.5L0.999999 8.5L15 8.5L15 6.5ZM18 3L18 4C18 4.27614 17.7761 4.5 17.5 4.5L2.5 4.5C2.22386 4.5 2 4.27614 2 4L2 3C2 1.61929 3.11929 0.500001 4.5 0.500001L15.5 0.5C16.8807 0.5 18 1.61929 18 3ZM17 3.5L17 3C17 2.17157 16.3284 1.5 15.5 1.5L4.5 1.5C3.67157 1.5 3 2.17157 3 3L3 3.5L17 3.5Z" fill="#525252"/>
</svg>
