<svg width="18" height="18" viewBox="0 0 18 18" fill="none" xmlns="http://www.w3.org/2000/svg">
<path d="M18 9C18 10.78 17.4722 12.5201 16.4832 14.0001C15.4943 15.4802 14.0887 16.6337 12.4442 17.3149C10.7996 17.9961 8.99002 18.1743 7.24419 17.8271C5.49836 17.4798 3.89471 16.6226 2.63604 15.364C1.37737 14.1053 0.520203 12.5016 0.172936 10.7558C-0.17433 9.00998 0.00389955 7.20038 0.685088 5.55585C1.36628 3.91131 2.51983 2.50571 3.99987 1.51677C5.47991 0.527841 7.21997 0 9 0C10.1819 0 11.3522 0.232792 12.4442 0.685084C13.5361 1.13738 14.5282 1.80031 15.364 2.63604C16.1997 3.47177 16.8626 4.46392 17.3149 5.55585C17.7672 6.64778 18 7.8181 18 9ZM14.4987 6.73437L12.8253 6.53657L11.1372 6.33649L9.71959 3.2626C9.3274 2.41341 8.68738 2.41341 8.29519 3.2626L6.87761 6.33649L5.18947 6.53657L3.51724 6.73437C2.58848 6.84464 2.39068 7.45396 3.07731 8.08943L4.31414 9.23304L5.56234 10.3869L5.23039 12.0546L4.90186 13.7063C4.71997 14.6237 5.23835 15 6.05457 14.5441L9.00796 12.8901L11.9613 14.5441C12.7764 15 13.2948 14.6237 13.1129 13.7063L12.4536 10.3869L13.7006 9.23304L14.9386 8.08943C15.6252 7.45396 15.4274 6.84464 14.4987 6.73437Z" fill="#525252"/>
</svg>
