<svg width="22" height="18" viewBox="0 0 22 18" fill="none" xmlns="http://www.w3.org/2000/svg">
<path d="M1 14.9129V3.17383C1 2.64339 1.24232 2.13469 1.67365 1.75961C2.10499 1.38454 2.69 1.17383 3.3 1.17383H8.59999C8.75392 1.17985 8.90467 1.21393 9.04248 1.27384C9.1803 1.33376 9.3021 1.41819 9.39999 1.52165L12.2 4.30426C12.2979 4.40772 12.4197 4.49215 12.5575 4.55207C12.6953 4.61199 12.8461 4.64606 13 4.65209H18.6C18.9053 4.62785 19.213 4.65936 19.5034 4.74459C19.7939 4.82981 20.0606 4.96688 20.2866 5.147C20.5126 5.32712 20.6927 5.54631 20.8156 5.79052C20.9384 6.03473 21.0012 6.29857 21 6.56513V14.9999C20.9742 15.492 20.7311 15.9566 20.3213 16.2968C19.9115 16.6369 19.3665 16.8265 18.8 16.826H3.2C2.61652 16.826 2.05694 16.6244 1.64436 16.2657C1.23178 15.9069 1 15.4203 1 14.9129Z" stroke="#808080" stroke-linecap="round" stroke-linejoin="round"/>
</svg>
