<svg width="24" height="22" viewBox="0 0 24 22" fill="none" xmlns="http://www.w3.org/2000/svg">
<path d="M16.6 5H11.8L8.80005 1H13.6L16.6 5ZM12.2 4.2H15L13.2 1.8H10.4L12.2 4.2Z" fill="#525252"/>
<path d="M24 14.5996V7.50361C24 6.52263 23.6109 5.58172 22.918 4.88731C22.225 4.1929 21.285 3.80173 20.304 3.79961H12.4L10 0.599609H2.8L0 4.33561V14.5996H24Z" fill="#525252"/>
<path d="M0 15.3994V17.7034C0.00211874 18.6844 0.393296 19.6245 1.0877 20.3174C1.78211 21.0103 2.72302 21.3994 3.704 21.3994H20.304C21.2836 21.3973 22.2225 21.0072 22.9151 20.3145C23.6078 19.6219 23.9979 18.683 24 17.7034V15.3994H0Z" fill="#525252"/>
</svg>
