<svg width="22" height="14" viewBox="0 0 22 14" fill="none" xmlns="http://www.w3.org/2000/svg">
<path d="M0 9.761C0 10.905 0.403333 11.873 1.21 12.665C2.01667 13.457 2.992 13.8603 4.136 13.875H17.886C19.0153 13.875 19.9833 13.4717 20.79 12.665C21.5967 11.8583 22 10.8903 22 9.761V5.625L16.5 0.125H5.5L0 5.625V9.761ZM2.75 7.011L6.644 2.875H15.356L19.25 7.011H15.136V8.375C15.136 8.75633 14.9967 9.08633 14.718 9.365C14.4393 9.64367 14.1167 9.77567 13.75 9.761H8.25C7.86867 9.761 7.546 9.629 7.282 9.365C7.018 9.101 6.886 8.771 6.886 8.375V7.011H2.75Z" fill="#525252"/>
</svg>
