<svg width="22" height="23" viewBox="0 0 22 23" fill="none" xmlns="http://www.w3.org/2000/svg">
<path d="M11 0.444458C4.928 0.444458 0 5.39735 0 11.5C0 17.6027 4.928 22.5556 11 22.5556C17.072 22.5556 22 17.6027 22 11.5C22 5.39735 17.072 0.444458 11 0.444458ZM7.315 14.5624C7.194 14.8941 6.875 15.1041 6.545 15.1041C6.446 15.1041 6.358 15.0931 6.259 15.0488C5.368 14.7172 4.62 14.0649 4.147 13.2136C3.047 11.2236 3.729 8.62557 5.654 7.42051L8.228 5.81746C9.174 5.23151 10.285 5.05462 11.341 5.33101C12.397 5.6074 13.288 6.3039 13.827 7.27679C14.927 9.26679 14.245 11.8648 12.32 13.0699L12.034 13.28C11.66 13.5453 11.143 13.4568 10.879 13.092C10.615 12.7161 10.703 12.1965 11.066 11.9312L11.407 11.688C12.639 10.9141 13.057 9.31101 12.386 8.08385C12.067 7.50896 11.55 7.0999 10.934 6.93407C10.318 6.76824 9.669 6.86774 9.108 7.22151L6.512 8.83562C5.324 9.57635 4.906 11.1794 5.577 12.4176C5.852 12.9151 6.292 13.3021 6.82 13.5011C7.249 13.6558 7.469 14.1312 7.315 14.5624ZM16.412 15.5353L13.838 17.1383C13.189 17.5474 12.463 17.7464 11.726 17.7464C11.396 17.7464 11.055 17.7022 10.725 17.6137C9.669 17.3373 8.778 16.6408 8.25 15.668C7.15 13.678 7.832 11.0799 9.757 9.87485L10.043 9.66479C10.417 9.39946 10.934 9.4879 11.198 9.85274C11.462 10.2286 11.374 10.7482 11.011 11.0136L10.67 11.2568C9.438 12.0307 9.02 13.6337 9.691 14.8609C10.01 15.4358 10.527 15.8448 11.143 16.0107C11.759 16.1765 12.408 16.077 12.969 15.7232L15.543 14.1202C16.731 13.3795 17.149 11.7764 16.478 10.5382C16.203 10.0407 15.763 9.65374 15.235 9.45473C14.806 9.29996 14.586 8.82457 14.751 8.3934C14.905 7.96223 15.389 7.74112 15.807 7.90696C16.698 8.23862 17.446 8.8909 17.919 9.74218C19.008 11.7322 18.337 14.3302 16.412 15.5353Z" fill="#757575"/>
</svg>
