<svg width="18" height="14" viewBox="0 0 18 14" fill="none" xmlns="http://www.w3.org/2000/svg">
<path d="M9.00306 7.97271C10.2831 7.97271 10.2831 6.02635 9.00306 6.02635L3.32238 6.02635L4.42493 4.92403C5.32983 4.01913 3.95367 2.64274 3.04877 3.54787L0.290418 6.30599C-0.0809695 6.67784 -0.112324 7.29032 0.290418 7.6933L3.04877 10.4512C3.95367 11.3563 5.32983 9.98016 4.42493 9.07503L3.32238 7.97271L9.00306 7.97271ZM6.95613 4.6776C6.5067 5.54951 5.18095 4.86596 5.63038 3.99428C6.75639 1.81867 8.99911 0.449482 11.4497 0.449482C15.0672 0.449481 18 3.38203 18 6.99953C18 10.617 15.0672 13.5498 11.4497 13.5498C8.99912 13.5498 6.75662 12.1804 5.63038 10.0048C5.18095 9.13286 6.5067 8.44954 6.95636 9.32169C7.82735 11.0044 9.55515 12.0547 11.4497 12.0547C14.2415 12.0547 16.5049 9.79156 16.5049 6.99953C16.5049 4.20749 14.2415 1.94456 11.4497 1.94456C9.55515 1.94456 7.82735 2.99462 6.95613 4.6776Z" fill="#525252"/>
</svg>
