<svg width="20" height="24" viewBox="0 0 20 24" fill="none" xmlns="http://www.w3.org/2000/svg">
<path d="M14.4444 7.10062C16.2854 7.10062 17.7778 5.5111 17.7778 3.55031C17.7778 1.58953 16.2854 0 14.4444 0C12.6035 0 11.1111 1.58953 11.1111 3.55031C11.1111 5.5111 12.6035 7.10062 14.4444 7.10062Z" fill="#525252"/>
<path d="M17.7777 9.46777H11.111C10.2799 9.46777 9.56246 9.96165 9.18188 10.6838C11.496 10.8469 13.3333 12.883 13.3333 15.385V16.5684V20.0768C15.4986 20.2166 17.8258 19.951 19.3525 19.2568C19.7506 19.075 19.9999 18.6417 19.9999 18.1758V11.8346C19.9999 10.5254 19.0069 9.46777 17.7777 9.46777Z" fill="#525252"/>
<path d="M5.55575 10.6514C7.39671 10.6514 8.8891 9.06188 8.8891 7.10109C8.8891 5.14031 7.39671 3.55078 5.55575 3.55078C3.7148 3.55078 2.22241 5.14031 2.22241 7.10109C2.22241 9.06188 3.7148 10.6514 5.55575 10.6514Z" fill="#525252"/>
<path d="M8.88891 13.0186H2.22223C0.993003 13.0186 0 14.0762 0 15.3854V21.7266C0 22.1879 0.249344 22.6258 0.647421 22.8075C3.18024 23.9584 7.9309 23.9584 10.4637 22.8075C10.8618 22.6258 11.1111 22.1925 11.1111 21.7266V15.3854C11.1111 14.0762 10.1181 13.0186 8.88891 13.0186Z" fill="#525252"/>
</svg>
