<svg width="24" height="24" viewBox="0 0 24 24" fill="none" xmlns="http://www.w3.org/2000/svg">
<path d="M17.7143 10.857C21.1858 10.857 24 13.6712 24 17.1427C24 20.6142 21.1858 23.4284 17.7143 23.4284C14.2428 23.4284 11.4286 20.6142 11.4286 17.1427C11.4286 13.6712 14.2428 10.857 17.7143 10.857ZM17.7143 13.1418L17.6116 13.151C17.3783 13.1934 17.1944 13.3773 17.1521 13.6106L17.1429 13.7133L17.1425 16.5704L14.283 16.5713L14.1803 16.5805C13.9471 16.6228 13.7631 16.8068 13.7208 17.04L13.7116 17.1427L13.7208 17.2454C13.7631 17.4787 13.9471 17.6626 14.1803 17.7049L14.283 17.7141L17.1436 17.7133L17.1441 20.5753L17.1533 20.678C17.1957 20.9112 17.3796 21.0952 17.6128 21.1375L17.7156 21.1467L17.8183 21.1375C18.0515 21.0952 18.2354 20.9112 18.2778 20.678L18.287 20.5753L18.2865 17.7133L21.1481 17.7141L21.2508 17.7049C21.484 17.6626 21.668 17.4787 21.7103 17.2454L21.7195 17.1427L21.7103 17.04C21.668 16.8068 21.484 16.6228 21.2508 16.5805L21.1481 16.5713L18.2853 16.5704L18.2857 13.7133L18.2765 13.6106C18.2342 13.3773 18.0503 13.1934 17.817 13.151L17.7143 13.1418ZM14.0046 8.57129C14.9584 8.57129 15.7908 9.09055 16.2348 9.86178C12.8404 10.548 10.2857 13.547 10.2857 17.1427C10.2857 18.616 10.7146 19.9892 11.4544 21.1441L11.432 21.1427C8.59099 21.1427 6.28792 18.8396 6.28792 15.9987V11.1427C6.28792 9.72256 7.43919 8.57129 8.85935 8.57129H14.0046ZM6.1788 8.5716C5.5919 9.18333 5.21235 9.99554 5.15317 10.8953L5.14506 11.1427V15.9987C5.14506 16.9663 5.36365 17.8828 5.75413 18.7016C5.37803 18.8033 4.9817 18.857 4.57285 18.857C2.04733 18.857 0 16.8097 0 14.2842V11.1427C0 9.78173 1.05733 8.66769 2.39537 8.57722L2.57143 8.57129L6.1788 8.5716ZM20.2857 8.57129C21.7059 8.57129 22.8571 9.72256 22.8571 11.1427L22.8581 11.7831C21.5233 10.5017 19.7107 9.71415 17.7143 9.71415L17.4364 9.71925C17.2586 9.29088 17.0021 8.902 16.6851 8.5716L20.2857 8.57129ZM18.8571 1.71415C20.4351 1.71415 21.7143 2.99333 21.7143 4.57129C21.7143 6.14925 20.4351 7.42843 18.8571 7.42843C17.2792 7.42843 16 6.14925 16 4.57129C16 2.99333 17.2792 1.71415 18.8571 1.71415ZM11.4286 0.571289C13.3221 0.571289 14.8571 2.10631 14.8571 3.99986C14.8571 5.89341 13.3221 7.42843 11.4286 7.42843C9.53502 7.42843 8 5.89341 8 3.99986C8 2.10631 9.53502 0.571289 11.4286 0.571289ZM4 1.71415C5.57796 1.71415 6.85714 2.99333 6.85714 4.57129C6.85714 6.14925 5.57796 7.42843 4 7.42843C2.42204 7.42843 1.14286 6.14925 1.14286 4.57129C1.14286 2.99333 2.42204 1.71415 4 1.71415Z" fill="#525252"/>
</svg>
