<svg width="18" height="18" viewBox="0 0 18 18" fill="none" xmlns="http://www.w3.org/2000/svg">
<path d="M0 2.025C0 0.906623 0.906623 0 2.025 0H14.175C15.2933 0 16.2 0.906623 16.2 2.025V8.11961C15.2907 7.53749 14.2097 7.19999 13.05 7.19999C9.81908 7.19999 7.19999 9.81908 7.19999 13.05C7.19999 14.2097 7.53749 15.2907 8.11961 16.2H2.025C0.906623 16.2 0 15.2933 0 14.175V2.025ZM6.55226 5.20229C6.81587 4.93869 6.81587 4.5113 6.55226 4.2477C6.28869 3.9841 5.8613 3.9841 5.5977 4.2477L4.275 5.5704L3.85229 5.1477C3.58869 4.8841 3.1613 4.8841 2.8977 5.1477C2.6341 5.4113 2.6341 5.83869 2.8977 6.10229L3.7977 7.00226C4.0613 7.26587 4.48869 7.26587 4.75229 7.00226L6.55226 5.20229ZM6.55226 10.1523C6.81587 9.88865 6.81587 9.46133 6.55226 9.19772C6.28869 8.93411 5.8613 8.93411 5.5977 9.19772L4.275 10.5204L3.85229 10.0977C3.58869 9.83411 3.1613 9.83411 2.8977 10.0977C2.6341 10.3613 2.6341 10.7886 2.8977 11.0523L3.7977 11.9523C4.0613 12.2159 4.48869 12.2159 4.75229 11.9523L6.55226 10.1523ZM9.22499 4.95C8.85221 4.95 8.54999 5.25221 8.54999 5.62499C8.54999 5.99778 8.85221 6.29999 9.22499 6.29999H12.375C12.7478 6.29999 13.05 5.99778 13.05 5.62499C13.05 5.25221 12.7478 4.95 12.375 4.95H9.22499Z" fill="#525252"/>
<path d="M17.9998 13.0506C17.9998 10.3167 15.7837 8.10059 13.0498 8.10059C10.316 8.10059 8.09985 10.3167 8.09985 13.0506C8.09985 15.7844 10.316 18.0006 13.0498 18.0006C15.7837 18.0006 17.9998 15.7844 17.9998 13.0506ZM13.5004 13.5006L13.5008 15.7537C13.5008 16.0023 13.2994 16.2037 13.0508 16.2037C12.8024 16.2037 12.6008 16.0023 12.6008 15.7537L12.6004 13.5006H10.3463C10.0979 13.5006 9.89634 13.2992 9.89634 13.0506C9.89634 12.8021 10.0979 12.6006 10.3463 12.6006H12.6003L12.5998 10.35C12.5998 10.1014 12.8014 9.89995 13.0498 9.89995C13.2983 9.89995 13.4998 10.1014 13.4998 10.35L13.5003 12.6006H15.7525C16.0011 12.6006 16.2025 12.8021 16.2025 13.0506C16.2025 13.2992 16.0011 13.5006 15.7525 13.5006H13.5004Z" fill="#525252"/>
</svg>
