<svg width="27" height="26" viewBox="0 0 27 26" fill="none" xmlns="http://www.w3.org/2000/svg">
<path d="M21.8487 20.1422L12.1486 10.9461C12.9658 8.73114 12.477 6.14953 10.705 4.3699C10.3307 3.99564 9.92593 3.68249 9.49057 3.4228C7.81787 2.36113 5.70981 2.21601 3.87671 2.99508L3.9149 3.03327L3.78506 3.13256L7.39015 6.74528C7.2603 7.08899 6.9166 7.74585 6.07643 8.58602C5.23626 9.42619 4.58704 9.76225 4.23569 9.89974L0.630605 6.28701L0.531313 6.41685L0.493123 6.37866C-0.285942 8.2194 -0.140822 10.3275 0.920846 12.0002C1.18053 12.4279 1.49369 12.8403 1.86031 13.2069C3.63994 14.9866 6.22155 15.4678 8.43654 14.6505L17.6326 24.3506C18.488 25.2595 19.9087 25.2825 20.787 24.3965L21.8945 23.289C22.7805 22.4182 22.7576 20.9976 21.8487 20.1422ZM20.0003 22.5023C19.4886 23.014 18.6484 23.014 18.1367 22.5023C17.6249 21.9905 17.6249 21.1504 18.1367 20.6386C18.6484 20.1269 19.4886 20.1269 20.0003 20.6386C20.5197 21.158 20.5197 21.9905 20.0003 22.5023Z" fill="#757575"/>
<path d="M26.7672 4.49973L22.6657 1.10087C22.3831 0.864092 21.9554 0.917557 21.7186 1.2078L15.1347 9.15885C14.8903 9.45673 14.9209 9.87681 15.2035 10.1136L16.6776 11.3357L8.56613 21.1274L7.7336 21.8225L6.39697 23.9458L6.61083 24.1215L6.59556 24.1444L7.49683 24.8929L7.51974 24.87L7.7336 25.0457L9.5667 23.3348L10.0937 22.3877L18.1975 12.6035L19.2974 13.5125C19.58 13.7492 20.0077 13.6958 20.2445 13.4055L26.8283 5.45447C27.0804 5.16423 27.0498 4.73651 26.7672 4.49973Z" fill="#757575"/>
</svg>
