<svg width="24" height="24" viewBox="0 0 24 24" fill="none" xmlns="http://www.w3.org/2000/svg">
<path d="M9.5 9C9.2243 9 9 9.2243 9 9.5C9 9.7757 9.2243 10 9.5 10C9.7757 10 10 9.7757 10 9.5C10 9.2243 9.7757 9 9.5 9Z" fill="#525252"/>
<path d="M14.9556 12.0005C15.2474 11.3667 15.423 10.6968 15.4795 10.0005H15C14.7238 10.0005 14.5 9.77663 14.5 9.50048C14.5 9.22433 14.7238 9.00048 15 9.00048H15.479C15.3729 7.72118 14.8638 6.55468 14.0793 5.62833L13.7427 5.96493C13.645 6.06258 13.5171 6.11138 13.3891 6.11138C13.2611 6.11138 13.1332 6.06258 13.0356 5.96493C12.8403 5.76968 12.8403 5.45308 13.0356 5.25783L13.3722 4.92118C12.4458 4.13663 11.2793 3.62753 10 3.52148V4.00048C10 4.27663 9.77615 4.50048 9.5 4.50048C9.22385 4.50048 9 4.27663 9 4.00048V3.52148C7.7207 3.62753 6.5542 4.13663 5.62785 4.92118L5.96525 5.25858C6.1605 5.45383 6.1605 5.77043 5.96525 5.96573C5.77005 6.16093 5.4534 6.16098 5.2581 5.96573L4.9207 5.62833C4.13615 6.55468 3.62705 7.72118 3.521 9.00048H4C4.27615 9.00048 4.5 9.22433 4.5 9.50048C4.5 9.77663 4.27615 10.0005 4 10.0005H3.521C3.62705 11.2798 4.13615 12.4463 4.9207 13.3726L5.2589 13.0344C5.45415 12.8392 5.77075 12.8392 5.966 13.0344C6.16125 13.2296 6.1613 13.5462 5.96605 13.7415L5.62785 14.0798C6.55425 14.8643 7.7207 15.3734 9 15.4795V15.0005C9 14.7244 9.22385 14.5005 9.5 14.5005C9.77615 14.5005 10 14.7244 10 15.0005V15.48C10.6963 15.4234 11.3662 15.2479 12 14.956V13.2505C12 12.5612 12.5607 12.0005 13.25 12.0005H14.9556ZM9.5 11.0005C8.8482 11.0005 8.2924 10.5824 8.086 10.0005H7C6.72385 10.0005 6.5 9.77663 6.5 9.50048C6.5 9.22433 6.72385 9.00048 7 9.00048H8.086C8.2369 8.57503 8.57455 8.23738 9 8.08648V6.00048C9 5.72433 9.22385 5.50048 9.5 5.50048C9.77615 5.50048 10 5.72433 10 6.00048V8.08648C10.5819 8.29288 11 8.84863 11 9.50048C11 10.3276 10.3271 11.0005 9.5 11.0005Z" fill="#525252"/>
<path d="M23.75 13H13.25C13.112 13 13 13.112 13 13.25V23.75C13 23.8881 13.112 24 13.25 24H23.75C23.8881 24 24 23.8881 24 23.75V13.25C24 13.112 23.8881 13 23.75 13ZM15.5 22H15C14.7239 22 14.5 21.7761 14.5 21.5C14.5 21.2239 14.7239 21 15 21H15.5C15.7761 21 16 21.2239 16 21.5C16 21.7761 15.7761 22 15.5 22ZM15.5 20H15C14.7239 20 14.5 19.7761 14.5 19.5C14.5 19.2239 14.7239 19 15 19H15.5C15.7761 19 16 19.2239 16 19.5C16 19.7761 15.7761 20 15.5 20ZM15.5 18H15C14.7239 18 14.5 17.7761 14.5 17.5C14.5 17.2239 14.7239 17 15 17H15.5C15.7761 17 16 17.2239 16 17.5C16 17.7761 15.7761 18 15.5 18ZM15.5 16H15C14.7239 16 14.5 15.7761 14.5 15.5C14.5 15.2239 14.7239 15 15 15H15.5C15.7761 15 16 15.2239 16 15.5C16 15.7761 15.7761 16 15.5 16ZM22 22H17.5C17.2239 22 17 21.7761 17 21.5C17 21.2239 17.2239 21 17.5 21H22C22.2761 21 22.5 21.2239 22.5 21.5C22.5 21.7761 22.2761 22 22 22ZM22 20H17.5C17.2239 20 17 19.7761 17 19.5C17 19.2239 17.2239 19 17.5 19H22C22.2761 19 22.5 19.2239 22.5 19.5C22.5 19.7761 22.2761 20 22 20ZM22 18H17.5C17.2239 18 17 17.7761 17 17.5C17 17.2239 17.2239 17 17.5 17H22C22.2761 17 22.5 17.2239 22.5 17.5C22.5 17.7761 22.2761 18 22 18ZM22 16H17.5C17.2239 16 17 15.7761 17 15.5C17 15.2239 17.2239 15 17.5 15H22C22.2761 15 22.5 15.2239 22.5 15.5C22.5 15.7761 22.2761 16 22 16Z" fill="#525252"/>
<path d="M4.57195 14.4663C4.56525 14.4604 4.55835 14.4546 4.5519 14.4482C1.83105 11.7273 1.81265 7.334 4.51585 4.5902C4.5268 4.5767 4.5385 4.5636 4.55105 4.551C4.5636 4.53845 4.5767 4.52675 4.59025 4.5158C7.31875 1.82765 11.6774 1.8297 14.4043 4.51035C14.42 4.5227 14.4353 4.53575 14.4498 4.55025C14.4643 4.56475 14.4774 4.5801 14.4897 4.59585C15.7322 5.8598 16.5 7.5918 16.5 9.5C16.5 10.3548 16.3417 11.2058 16.0389 12H18.6667C18.8878 11.1889 19 10.3509 19 9.5C19 4.2617 14.7383 0 9.5 0C4.2617 0 0 4.2617 0 9.5C0 14.7383 4.2617 19 9.5 19C10.3509 19 11.1889 18.8878 12 18.6668V16.0389C11.2058 16.3417 10.3548 16.5 9.5 16.5C7.5798 16.5 5.8379 15.7226 4.57195 14.4663Z" fill="#525252"/>
<path d="M16.3472 0.891085C18.9865 2.99314 20.5001 6.13094 20.5001 9.49999C20.5001 10.3436 20.4038 11.1828 20.2139 12H21.238C22.1508 7.69729 20.6746 3.05924 16.9702 0.108885C16.7541 -0.0631647 16.4397 -0.0274146 16.2676 0.188485C16.0956 0.404485 16.1312 0.719035 16.3472 0.891085Z" fill="#525252"/>
<path d="M0.891117 16.3467C0.719067 16.1307 0.404467 16.0951 0.188517 16.2671C-0.0274834 16.4391 -0.0631334 16.7537 0.108917 16.9697C3.05877 20.6735 7.69647 22.1505 12 21.2375V20.2134C11.1828 20.4033 10.3436 20.4996 9.49997 20.4996C6.13092 20.4996 2.99312 18.986 0.891117 16.3467Z" fill="#525252"/>
</svg>
