<svg width="22" height="22" viewBox="0 0 22 22" fill="none" xmlns="http://www.w3.org/2000/svg">
<path d="M10.9799 0.876953C4.86579 0.876953 0.0330633 5.38018 0.0330633 10.9085C0.0330633 12.6659 0.545625 14.3134 1.35108 15.7779C1.49753 15.9975 1.53414 16.2904 1.46091 16.5467L0.0330633 20.4641C-0.113383 20.8303 0.252733 21.1598 0.618849 21.0499L4.5729 19.5489C4.79257 19.439 5.08546 19.5122 5.34174 19.6587C6.98926 20.574 8.96628 21.1231 11.0898 21.1231C17.0941 21.0865 22 16.6199 22 11.0184C21.9634 5.38018 17.0574 0.876953 10.9799 0.876953ZM5.89091 10.579C5.89091 10.3593 6.07397 10.1397 6.33025 10.1397H13.4329C13.6526 10.1397 13.8722 10.3227 13.8722 10.579V11.4211C13.8722 11.6408 13.6892 11.8604 13.4329 11.8604H6.29364C6.07397 11.8604 5.8543 11.6774 5.8543 11.4211V10.579H5.89091ZM16.1055 14.826C16.1055 15.0456 15.9225 15.2653 15.6662 15.2653H6.29364C6.07397 15.2653 5.8543 15.0822 5.8543 14.826V13.9839C5.8543 13.7642 6.03736 13.5446 6.29364 13.5446H15.6662C15.8859 13.5446 16.1055 13.7276 16.1055 13.9839V14.826ZM16.1055 8.01621C16.1055 8.23588 15.9225 8.45555 15.6662 8.45555H6.29364C6.07397 8.45555 5.8543 8.27249 5.8543 8.01621V7.17414C5.8543 6.95447 6.03736 6.7348 6.29364 6.7348H15.6662C15.8859 6.7348 16.1055 6.91786 16.1055 7.17414V8.01621Z" fill="#757575"/>
</svg>
