<svg width="12" height="12" viewBox="0 0 12 12" fill="none" xmlns="http://www.w3.org/2000/svg">
<path d="M6.98107 6L11.428 1.55335C11.5237 1.45751 11.5237 1.30224 11.428 1.2064L10.7937 0.571845C10.7477 0.525957 10.6852 0.5 10.6202 0.5C10.555 0.5 10.4926 0.525957 10.4466 0.571845L5.9998 5.01861L1.55303 0.571845C1.4609 0.479721 1.29786 0.479837 1.20597 0.571845L0.571874 1.2064C0.476042 1.30224 0.476042 1.45751 0.571874 1.55335L5.01864 6L0.571874 10.4467C0.476042 10.5425 0.476042 10.6978 0.571874 10.7936L1.20608 11.4282C1.25209 11.474 1.31455 11.5 1.37967 11.5C1.4448 11.5 1.50714 11.474 1.55314 11.4282L5.99991 6.98139L10.4467 11.4282C10.4927 11.474 10.5553 11.5 10.6203 11.5C10.6853 11.5 10.7479 11.474 10.7939 11.4282L11.4281 10.7936C11.5238 10.6978 11.5238 10.5425 11.4281 10.4467L6.98107 6Z" fill="#525252"/>
</svg>
