<svg width="18" height="16" viewBox="0 0 18 16" fill="none" xmlns="http://www.w3.org/2000/svg">
<path d="M2.9117 12.2877C3.09579 12.2877 3.24502 12.1385 3.24502 11.9544C3.24502 11.7703 3.09579 11.6211 2.9117 11.6211C2.7276 11.6211 2.57837 11.7703 2.57837 11.9544C2.57837 12.1385 2.7276 12.2877 2.9117 12.2877Z" fill="#525252"/>
<path d="M0.000577443 1.02667L0.000244141 14.3549C0.000243823 14.4369 0.0304926 14.516 0.0852018 14.5772C0.139911 14.6383 0.215238 14.6771 0.296768 14.6861L5.6668 15.2828V1.28385L0.3707 0.695399C0.32411 0.690221 0.276951 0.694928 0.232304 0.709215C0.187657 0.723501 0.146526 0.747044 0.111596 0.778307C0.0766661 0.80957 0.0487238 0.84785 0.0295938 0.890646C0.0104639 0.933442 0.000576512 0.979792 0.000577443 1.02667ZM4.18864 2.48569C4.51471 2.35223 4.8544 2.25487 5.20164 2.19533C5.24482 2.18766 5.28908 2.18858 5.3319 2.19804C5.37471 2.20751 5.41524 2.22533 5.45116 2.25049C5.48707 2.27565 5.51767 2.30765 5.54119 2.34465C5.56472 2.38166 5.58071 2.42294 5.58825 2.46614C5.59578 2.50934 5.59472 2.5536 5.58512 2.59638C5.57552 2.63917 5.55758 2.67964 5.5323 2.71548C5.50703 2.75131 5.47494 2.78181 5.43786 2.80522C5.40078 2.82863 5.35945 2.84449 5.31623 2.85189C5.01683 2.90343 4.72389 2.98725 4.44255 3.10188C4.40232 3.11866 4.35917 3.12728 4.3156 3.12727C4.23841 3.12729 4.16361 3.10051 4.10396 3.05152C4.04432 3.00253 4.00352 2.93435 3.98854 2.85864C3.97356 2.78292 3.98532 2.70434 4.02181 2.63633C4.0583 2.56831 4.11727 2.51507 4.18864 2.48569ZM3.91165 11.9539C3.91165 12.1517 3.853 12.345 3.74312 12.5095C3.63324 12.6739 3.47707 12.8021 3.29435 12.8778C3.11162 12.9535 2.91056 12.9733 2.71658 12.9347C2.52261 12.8961 2.34443 12.8009 2.20458 12.661C2.06473 12.5212 1.96949 12.343 1.9309 12.149C1.89232 11.955 1.91212 11.754 1.98781 11.5712C2.06349 11.3885 2.19166 11.2323 2.35611 11.1225C2.52056 11.0126 2.71389 10.9539 2.91167 10.9539C3.17679 10.9542 3.43096 11.0597 3.61843 11.2472C3.80589 11.4346 3.91136 11.6888 3.91165 11.9539ZM2.16071 9.63675C2.20178 9.62163 2.24542 9.61475 2.28915 9.61651C2.33288 9.61826 2.37583 9.62862 2.41555 9.64698C2.45527 9.66535 2.49099 9.69136 2.52065 9.72354C2.55032 9.75571 2.57335 9.79342 2.58843 9.8345C2.63669 9.97272 2.69399 10.1076 2.75996 10.2383C2.78234 10.276 2.79708 10.3177 2.80333 10.3611C2.80958 10.4044 2.80722 10.4486 2.79637 10.491C2.78553 10.5335 2.76643 10.5734 2.74015 10.6085C2.71387 10.6435 2.68094 10.673 2.64324 10.6954C2.60553 10.7177 2.5638 10.7323 2.52042 10.7385C2.47704 10.7447 2.43288 10.7422 2.39044 10.7313C2.34801 10.7204 2.30815 10.7012 2.27314 10.6749C2.23812 10.6486 2.20865 10.6156 2.1864 10.5778C2.09871 10.4128 2.02395 10.2412 1.96277 10.0647C1.94766 10.0236 1.9408 9.9799 1.94257 9.93615C1.94434 9.89241 1.95471 9.84944 1.97309 9.8097C1.99147 9.76997 2.01749 9.73424 2.04968 9.70457C2.08187 9.67489 2.11961 9.65184 2.16071 9.63675ZM2.28408 4.03219C2.4836 3.73703 2.71961 3.46825 2.98652 3.23226C3.01926 3.20299 3.05746 3.18049 3.09893 3.16604C3.1404 3.1516 3.18431 3.14549 3.22815 3.14807C3.27199 3.15065 3.31488 3.16186 3.35437 3.18108C3.39385 3.20029 3.42915 3.22712 3.45824 3.26002C3.48732 3.29292 3.50962 3.33124 3.52384 3.37279C3.53806 3.41433 3.54393 3.45828 3.54112 3.5021C3.5383 3.54592 3.52685 3.58876 3.50742 3.62814C3.48799 3.66752 3.46097 3.70267 3.42792 3.73158C3.2032 3.93068 3.00438 4.15722 2.83613 4.40588C2.81159 4.44213 2.78016 4.47319 2.74362 4.49729C2.70708 4.52139 2.66615 4.53806 2.62316 4.54634C2.58018 4.55463 2.53599 4.55436 2.49311 4.54556C2.45023 4.53677 2.4095 4.51961 2.37325 4.49507C2.337 4.47054 2.30594 4.4391 2.28184 4.40256C2.25774 4.36602 2.24107 4.32509 2.23279 4.28211C2.22451 4.23912 2.22477 4.19493 2.23357 4.15205C2.24237 4.10917 2.25954 4.06844 2.28408 4.03219ZM1.67794 5.38277L1.69422 5.31864C1.70568 5.2764 1.72534 5.23684 1.75209 5.2022C1.77883 5.16757 1.81214 5.13854 1.8501 5.11678C1.88807 5.09501 1.92995 5.08094 1.97335 5.07536C2.01676 5.06979 2.06083 5.07281 2.10307 5.08427C2.1453 5.09572 2.18487 5.11539 2.2195 5.14213C2.25414 5.16888 2.28316 5.20219 2.30493 5.24015C2.32669 5.27812 2.34076 5.32 2.34634 5.3634C2.35192 5.4068 2.34889 5.45088 2.33744 5.49311L2.32572 5.53999C2.25428 5.82639 2.20165 6.11715 2.16817 6.41041C2.16319 6.45389 2.1497 6.49595 2.12846 6.53421C2.10722 6.57247 2.07866 6.60617 2.04439 6.63339C2.01013 6.66061 1.97084 6.68082 1.92877 6.69285C1.8867 6.70489 1.84267 6.70852 1.7992 6.70354C1.75573 6.69856 1.71366 6.68506 1.6754 6.66383C1.63714 6.64259 1.60344 6.61402 1.57622 6.57976C1.549 6.5455 1.5288 6.50621 1.51676 6.46414C1.50473 6.42207 1.50109 6.37804 1.50607 6.33457C1.54248 6.01388 1.59989 5.69593 1.67794 5.38277ZM1.78504 7.3492C1.82883 7.34599 1.87283 7.35157 1.91444 7.36561C1.95605 7.37965 1.99443 7.40186 2.02733 7.43095C2.06023 7.46003 2.08699 7.49539 2.10604 7.53496C2.12508 7.57453 2.13602 7.61751 2.13822 7.66136C2.15785 7.97533 2.19622 8.28783 2.25313 8.59722C2.26119 8.64032 2.26067 8.68459 2.25159 8.72748C2.24251 8.77038 2.22506 8.81106 2.20024 8.84721C2.17541 8.88335 2.1437 8.91424 2.10692 8.9381C2.07013 8.96197 2.029 8.97834 1.98588 8.98628C1.94276 8.99423 1.8985 8.99358 1.85562 8.98439C1.81275 8.9752 1.77211 8.95764 1.73604 8.93272C1.69997 8.90779 1.66916 8.876 1.6454 8.83915C1.62163 8.8023 1.60537 8.76113 1.59754 8.71799C1.53577 8.38224 1.49415 8.04309 1.47288 7.70237C1.47019 7.65868 1.47613 7.61489 1.49035 7.5735C1.50458 7.53211 1.52683 7.49393 1.55581 7.46113C1.5848 7.42834 1.61996 7.40157 1.65929 7.38237C1.69862 7.36316 1.74135 7.35189 1.78504 7.3492Z" fill="#525252"/>
<path d="M17.9996 1.40959C17.9996 1.38498 17.9905 1.36124 17.9741 1.3429C17.9577 1.32457 17.9351 1.31293 17.9107 1.31021L12.333 0.69043L12.3328 13.183C12.449 13.1534 12.565 13.123 12.6778 13.0854C12.7614 13.0583 12.8522 13.0654 12.9306 13.1049C13.009 13.1445 13.0687 13.2134 13.0965 13.2967C13.1244 13.38 13.1183 13.4709 13.0795 13.5497C13.0407 13.6285 12.9724 13.6888 12.8894 13.7175C12.7066 13.7777 12.5208 13.8285 12.3328 13.8697L12.3328 14.691L17.8889 15.3083C17.9029 15.3098 17.9171 15.3084 17.9304 15.3041C17.9438 15.2999 17.9562 15.2928 17.9667 15.2834C17.9771 15.274 17.9855 15.2625 17.9913 15.2497C17.997 15.2369 18 15.223 18 15.2089L17.9996 1.40959ZM14.9528 12.4295C14.7088 12.6836 14.4379 12.9105 14.1449 13.1061C14.0714 13.1549 13.9815 13.1725 13.895 13.1552C13.8085 13.1378 13.7324 13.0869 13.6833 13.0135C13.6343 12.9402 13.6164 12.8504 13.6334 12.7638C13.6505 12.6772 13.7012 12.601 13.7744 12.5517C14.0273 12.3831 14.2611 12.1874 14.4717 11.9682C14.502 11.9366 14.5382 11.9113 14.5783 11.8937C14.6183 11.8761 14.6615 11.8666 14.7052 11.8657C14.749 11.8647 14.7925 11.8725 14.8333 11.8883C14.874 11.9042 14.9113 11.928 14.9429 11.9583C14.9745 11.9886 14.9998 12.0248 15.0174 12.0649C15.035 12.1049 15.0445 12.1481 15.0454 12.1918C15.0463 12.2356 15.0386 12.2791 15.0227 12.3199C15.0069 12.3606 14.9831 12.3979 14.9528 12.4295ZM14.7614 6.81354C14.6882 6.67243 14.6094 6.53621 14.5267 6.40876C14.5028 6.37204 14.4864 6.33098 14.4785 6.28792C14.4705 6.24486 14.4711 6.20065 14.4802 6.15782C14.4893 6.11498 14.5068 6.07437 14.5316 6.03829C14.5564 6.00221 14.5881 5.97138 14.6248 5.94755C14.6616 5.92372 14.7026 5.90737 14.7457 5.89943C14.7888 5.89149 14.833 5.89212 14.8758 5.90128C14.9186 5.91043 14.9592 5.92794 14.9953 5.9528C15.0313 5.97765 15.0621 6.00937 15.0859 6.04614C15.1803 6.19164 15.2702 6.34642 15.3532 6.50625C15.3939 6.58473 15.4018 6.67618 15.3752 6.76048C15.3485 6.84478 15.2894 6.91504 15.2109 6.95579C15.1325 6.99654 15.041 7.00444 14.9567 6.97776C14.8724 6.95109 14.8021 6.89201 14.7614 6.81354ZM15.7331 11.2313C15.7084 11.2932 15.6657 11.3464 15.6105 11.3838C15.5553 11.4213 15.4902 11.4413 15.4235 11.4414C15.3812 11.4414 15.3393 11.4333 15.3001 11.4175C15.2594 11.4013 15.2223 11.3773 15.191 11.3468C15.1596 11.3163 15.1345 11.2798 15.1172 11.2396C15.0999 11.1994 15.0907 11.1562 15.0902 11.1124C15.0896 11.0686 15.0977 11.0252 15.1139 10.9845C15.2239 10.703 15.3006 10.4096 15.3424 10.1102C15.3487 10.0669 15.3635 10.0253 15.3859 9.98768C15.4083 9.95009 15.4379 9.91727 15.473 9.89111C15.508 9.86495 15.5479 9.84596 15.5904 9.83521C15.6328 9.82446 15.6769 9.82218 15.7202 9.82848C15.7635 9.83479 15.8051 9.84956 15.8427 9.87196C15.8803 9.89435 15.9131 9.92394 15.9393 9.95902C15.9655 9.99409 15.9845 10.034 15.9952 10.0764C16.006 10.1188 16.0082 10.1629 16.0019 10.2062C15.9529 10.5573 15.8626 10.9013 15.7331 11.2313ZM15.7295 9.18165C15.7187 9.18276 15.7078 9.1833 15.6969 9.18327C15.6142 9.18322 15.5344 9.15237 15.4732 9.09675C15.4119 9.04112 15.3736 8.96469 15.3656 8.88233C15.3351 8.57347 15.2803 8.2675 15.2015 7.96731C15.1791 7.88176 15.1916 7.79081 15.2362 7.71447C15.2809 7.63813 15.3541 7.58266 15.4396 7.56026C15.5252 7.53785 15.6161 7.55036 15.6925 7.59501C15.7688 7.63967 15.8243 7.71282 15.8467 7.79837C15.9341 8.13278 15.9951 8.47356 16.029 8.81755C16.0332 8.86113 16.0288 8.90512 16.0161 8.947C16.0034 8.98888 15.9825 9.02785 15.9547 9.06166C15.9269 9.09547 15.8926 9.12347 15.854 9.14406C15.8154 9.16465 15.7731 9.17742 15.7295 9.18165ZM16.358 3.09519L14.8757 3.83638V4.90814C14.8757 4.99654 14.8405 5.08133 14.778 5.14384C14.7155 5.20635 14.6307 5.24147 14.5423 5.24147C14.4539 5.24147 14.3691 5.20635 14.3066 5.14384C14.2441 5.08133 14.209 4.99654 14.209 4.90814V1.9637C14.209 1.90689 14.2236 1.85103 14.2512 1.80142C14.2789 1.7518 14.3188 1.71008 14.3671 1.68022C14.4155 1.65035 14.4706 1.63332 14.5274 1.63075C14.5841 1.62818 14.6406 1.64015 14.6914 1.66553L16.358 2.49884C16.4134 2.52654 16.46 2.5691 16.4925 2.62176C16.5251 2.67443 16.5423 2.73511 16.5423 2.79701C16.5423 2.85892 16.5251 2.9196 16.4925 2.97226C16.46 3.02493 16.4134 3.06749 16.358 3.09519Z" fill="#525252"/>
<path d="M14.8757 2.92094V3.08994L15.4637 2.79595L14.8757 2.50195V2.92094Z" fill="#525252"/>
<path d="M11.4975 13.6709C11.4884 13.6045 11.4997 13.5368 11.5298 13.4769C11.56 13.417 11.6076 13.3676 11.6665 13.3353L11.6667 0.69043L6.3335 1.28371V2.22009C6.36612 2.18718 6.40528 2.16147 6.44846 2.14463C6.49164 2.12779 6.53786 2.1202 6.58416 2.12234L6.72023 2.13129C7.0185 2.15359 7.31502 2.19523 7.6079 2.25595C7.68859 2.27282 7.76017 2.31898 7.80881 2.38553C7.85746 2.45208 7.87972 2.53429 7.8713 2.61629C7.86289 2.69829 7.82439 2.77426 7.76324 2.82954C7.70209 2.88482 7.62263 2.91548 7.5402 2.91561C7.51723 2.91558 7.49433 2.91324 7.47184 2.90861C7.20742 2.85375 6.93972 2.81613 6.67042 2.79598L6.5464 2.788C6.4658 2.78258 6.39002 2.74769 6.3335 2.68997V15.2828L11.6664 14.6909L11.6664 13.9111C11.6215 13.8869 11.5829 13.8527 11.5536 13.811C11.5242 13.7693 11.505 13.7213 11.4975 13.6709ZM10.2351 4.27479C10.2765 4.26048 10.3203 4.25447 10.364 4.25711C10.4077 4.25974 10.4505 4.27098 10.4899 4.29016C10.5292 4.30934 10.5644 4.3361 10.5934 4.36891C10.6224 4.40171 10.6447 4.43991 10.6589 4.48132C10.7585 4.77399 10.8085 5.08121 10.807 5.39034C10.8074 5.45056 10.8057 5.51338 10.8018 5.57718C10.797 5.66207 10.7599 5.7419 10.6981 5.8003C10.6363 5.85871 10.5545 5.89126 10.4695 5.8913C10.463 5.8913 10.4565 5.89114 10.45 5.89081C10.4063 5.88829 10.3635 5.87718 10.3241 5.85812C10.2847 5.83906 10.2494 5.81242 10.2203 5.77973C10.1912 5.74704 10.1688 5.70893 10.1544 5.66759C10.14 5.62624 10.1339 5.58247 10.1365 5.53877C10.1391 5.48929 10.1407 5.44047 10.1404 5.39229C10.1421 5.15641 10.1043 4.9219 10.0287 4.69845C9.99996 4.6149 10.0055 4.52335 10.0442 4.44391C10.0829 4.36447 10.1516 4.30364 10.2351 4.27479ZM8.48222 2.8492C8.50112 2.80971 8.52762 2.77433 8.56021 2.7451C8.59279 2.71586 8.63082 2.69333 8.67212 2.67881C8.71342 2.66428 8.75718 2.65804 8.80089 2.66043C8.8446 2.66283 8.88741 2.67383 8.92688 2.69279C9.25102 2.84536 9.5532 3.04079 9.8253 3.27383C9.85832 3.30256 9.88536 3.33751 9.90487 3.37668C9.92439 3.41586 9.936 3.4585 9.93904 3.50216C9.94207 3.54582 9.93648 3.58965 9.92258 3.63116C9.90868 3.67266 9.88674 3.71101 9.85801 3.74404C9.82928 3.77706 9.79434 3.8041 9.75516 3.82361C9.71598 3.84313 9.67335 3.85474 9.62968 3.85777C9.58602 3.86081 9.54219 3.85522 9.50069 3.84132C9.45918 3.82741 9.42083 3.80547 9.38781 3.77675C9.16079 3.58298 8.90876 3.42062 8.63849 3.29401C8.59901 3.27507 8.56366 3.24854 8.53444 3.21594C8.50522 3.18333 8.48271 3.14529 8.4682 3.10399C8.45369 3.06268 8.44746 3.01892 8.44986 2.9752C8.45227 2.93149 8.46326 2.88866 8.48222 2.8492ZM7.26512 8.60024C7.50115 8.32262 7.78046 8.08491 8.09225 7.89631C8.16658 7.84896 8.25663 7.83298 8.34271 7.85187C8.42879 7.87075 8.50389 7.92296 8.55157 7.99707C8.59926 8.07118 8.61565 8.16116 8.59716 8.24732C8.57867 8.33349 8.5268 8.40882 8.45291 8.45685C8.20135 8.60593 7.97584 8.7951 7.78528 9.0169C7.75796 9.05117 7.72415 9.07972 7.68579 9.10091C7.64742 9.1221 7.60525 9.13551 7.56169 9.14038C7.51813 9.14524 7.47404 9.14147 7.43194 9.12927C7.38984 9.11707 7.35056 9.09669 7.31635 9.06929C7.28215 9.04189 7.25368 9.00801 7.23258 8.96959C7.21149 8.93117 7.19818 8.88897 7.19342 8.84539C7.18866 8.80182 7.19254 8.75774 7.20484 8.71567C7.21714 8.67361 7.23763 8.63438 7.26512 8.60024ZM7.21922 11.315C7.19189 11.322 7.16378 11.3256 7.13556 11.3256C7.06167 11.3255 6.98989 11.3009 6.9315 11.2557C6.87311 11.2104 6.83142 11.147 6.81297 11.0754C6.74699 10.8219 6.71341 10.5611 6.71304 10.2991C6.71302 10.1927 6.71878 10.0865 6.73029 9.98074C6.74017 9.89306 6.78441 9.81288 6.8533 9.75776C6.9222 9.70264 7.01014 9.67709 7.09785 9.68669C7.18555 9.6963 7.26588 9.74029 7.32121 9.80901C7.37654 9.87774 7.40237 9.96559 7.39304 10.0533C7.3841 10.1351 7.37965 10.2173 7.37971 10.2996C7.38014 10.5053 7.40672 10.7101 7.45881 10.9091C7.48082 10.9947 7.46794 11.0855 7.42302 11.1617C7.3781 11.2378 7.3048 11.2929 7.21922 11.315ZM8.65506 13.0681C8.62894 13.1032 8.59615 13.1329 8.55857 13.1553C8.52099 13.1778 8.47935 13.1926 8.43603 13.199C8.39271 13.2053 8.34856 13.2031 8.30611 13.1924C8.26366 13.1817 8.22373 13.1627 8.1886 13.1366C7.90166 12.9164 7.64806 12.6558 7.43569 12.363C7.38333 12.2918 7.36141 12.2027 7.37475 12.1153C7.38809 12.0279 7.43559 11.9494 7.50682 11.897C7.57804 11.8447 7.66715 11.8228 7.75454 11.8361C7.84193 11.8494 7.92044 11.8969 7.9728 11.9682C8.14583 12.2078 8.35248 12.4212 8.58639 12.6018C8.65733 12.6545 8.70441 12.7333 8.71729 12.8207C8.73017 12.9082 8.70779 12.9971 8.65506 13.0681ZM9.18793 7.2098C9.42641 7.04532 9.63392 6.83996 9.80087 6.60321C9.82533 6.56683 9.85673 6.53563 9.89327 6.5114C9.9298 6.48718 9.97076 6.4704 10.0138 6.46203C10.0568 6.45366 10.1011 6.45386 10.144 6.46262C10.187 6.47139 10.2278 6.48854 10.2641 6.5131C10.3004 6.53765 10.3315 6.56914 10.3557 6.60574C10.3798 6.64234 10.3964 6.68334 10.4047 6.7264C10.413 6.76945 10.4126 6.81371 10.4037 6.85664C10.3949 6.89957 10.3776 6.94032 10.3529 6.97657C10.1432 7.2779 9.88141 7.53943 9.57985 7.74885C9.54446 7.77459 9.50434 7.7931 9.46179 7.80333C9.41924 7.81356 9.3751 7.81531 9.33187 7.80848C9.28865 7.80164 9.24719 7.78636 9.20987 7.76351C9.17255 7.74066 9.1401 7.71068 9.11437 7.67529C9.08863 7.63989 9.07012 7.59977 9.05989 7.55723C9.04966 7.51468 9.04791 7.47053 9.05474 7.42731C9.06158 7.38408 9.07685 7.34263 9.09971 7.30531C9.12256 7.26799 9.15254 7.23553 9.18793 7.2098ZM10.5196 13.981C10.5079 13.981 10.4962 13.9803 10.4841 13.9792C10.1356 13.9428 9.79158 13.8717 9.45713 13.7671C9.41539 13.754 9.37665 13.7327 9.34312 13.7046C9.3096 13.6764 9.28194 13.642 9.26173 13.6031C9.24153 13.5643 9.22916 13.5219 9.22535 13.4783C9.22154 13.4347 9.22636 13.3908 9.23953 13.349C9.25269 13.3073 9.27395 13.2685 9.30209 13.235C9.33023 13.2015 9.3647 13.1738 9.40352 13.1536C9.44235 13.1334 9.48477 13.121 9.52838 13.1172C9.57198 13.1134 9.61591 13.1182 9.65765 13.1314C9.94969 13.2227 10.2501 13.2845 10.5544 13.3161C10.6393 13.3252 10.7174 13.3664 10.7728 13.4313C10.8282 13.4962 10.8566 13.5799 10.8521 13.6651C10.8476 13.7503 10.8107 13.8305 10.7488 13.8893C10.687 13.9481 10.6049 13.9809 10.5196 13.981Z" fill="#525252"/>
</svg>
