<svg width="18" height="18" viewBox="0 0 18 18" fill="none" xmlns="http://www.w3.org/2000/svg">
<path fill-rule="evenodd" clip-rule="evenodd" d="M6.93321 2.14389C5.79618 2.14389 4.70572 2.59567 3.90172 3.39984C3.09771 4.20401 2.64603 5.2947 2.64603 6.43198C2.64603 7.56925 3.09771 8.65994 3.90172 9.46411C4.70572 10.2683 5.79618 10.7201 6.93321 10.7201C8.07024 10.7201 9.1607 10.2683 9.96471 9.46411C10.7687 8.65994 11.2204 7.56925 11.2204 6.43198C11.2204 5.2947 10.7687 4.20401 9.96471 3.39984C9.1607 2.59567 8.07024 2.14389 6.93321 2.14389ZM0.502442 6.43198C0.502312 5.41967 0.741068 4.42163 1.19929 3.51902C1.65752 2.61641 2.32227 1.83472 3.13948 1.23752C3.9567 0.640328 4.9033 0.244493 5.9023 0.0822116C6.9013 -0.0800701 7.9245 -0.00421674 8.88866 0.303603C9.85283 0.611422 10.7307 1.14252 11.451 1.85369C12.1713 2.56486 12.7135 3.43603 13.0337 4.39635C13.3539 5.35667 13.4429 6.37901 13.2936 7.38024C13.1443 8.38146 12.7608 9.3333 12.1743 10.1583L17.3371 15.3223C17.5324 15.5244 17.6404 15.7952 17.638 16.0763C17.6355 16.3574 17.5228 16.6263 17.3241 16.825C17.1253 17.0238 16.8565 17.1365 16.5755 17.139C16.2945 17.1414 16.0237 17.0334 15.8216 16.8381L10.6598 11.6752C9.69776 12.3595 8.56593 12.7657 7.38838 12.8492C6.21083 12.9328 5.033 12.6906 3.98395 12.149C2.93491 11.6075 2.05514 10.7876 1.44104 9.77921C0.826938 8.77078 0.502212 7.61274 0.502442 6.43198Z" fill="#A6A6A6"/>
</svg>
