<svg width="18" height="22" viewBox="0 0 18 22" fill="none" xmlns="http://www.w3.org/2000/svg">
<path d="M14.1035 4.16893C15.2272 4.16893 16.1382 3.25798 16.1382 2.13427C16.1382 1.01056 15.2272 0.0996094 14.1035 0.0996094C12.9798 0.0996094 12.0688 1.01056 12.0688 2.13427C12.0688 3.25798 12.9798 4.16893 14.1035 4.16893Z" fill="#525252"/>
<path d="M17.1498 9.48846C16.7981 9.43266 14.0346 8.99433 13.7065 8.94228L12.1113 5.45679L14.0874 7.87854L14.4865 6.71339C14.7044 6.07732 14.3653 5.38504 13.7293 5.16717L11.1132 4.27109C10.4786 4.0537 9.78802 4.39082 9.56855 5.02419L6.22685 5.53726C5.89318 5.58855 5.6074 5.80329 5.46541 6.10953L3.77157 9.76263C3.5376 10.2671 3.7567 10.8667 4.26195 11.1009C4.76697 11.3351 5.3661 11.1155 5.60025 10.6105L7.06681 7.44769L8.83108 7.17678L7.24612 11.8041L5.4728 14.7854L1.75931 12.7669C1.18169 12.4528 0.458759 12.6665 0.144798 13.2442C-0.169257 13.8219 0.0444858 14.5447 0.622204 14.8588L5.34194 17.4244C5.90436 17.7301 6.60697 17.5363 6.93372 16.987L8.41486 14.4969L13.4876 15.6898V20.7101C13.4876 21.3676 14.0207 21.9006 14.6782 21.9006C15.3356 21.9006 15.8687 21.3676 15.8687 20.7101V14.7467C15.8687 14.1942 15.4886 13.7143 14.9507 13.5878L12.3419 12.9743L12.7408 11.8097L12.7055 11.8041C11.8196 11.6636 11.248 10.9507 11.15 10.4634L10.337 6.42358L12.0985 10.2725C12.2386 10.5784 12.5248 10.7958 12.8571 10.8485C13.1579 10.8962 16.1275 11.3672 16.8341 11.4793C17.3782 11.5656 17.8997 11.1949 17.9874 10.6418C18.0746 10.092 17.6997 9.57565 17.1498 9.48846Z" fill="#525252"/>
</svg>
