<svg width="18" height="16" viewBox="0 0 18 16" fill="none" xmlns="http://www.w3.org/2000/svg">
<path d="M8.96292 15.4679C7.82277 15.4552 6.71838 15.28 5.6916 14.751C4.71402 14.2474 4.15318 13.541 4.28923 12.3456C4.46593 10.7931 4.80293 9.3097 5.72813 8.02185C6.71955 6.64179 7.99422 5.78951 9.77724 6.14218C11.1095 6.40567 11.9858 7.31737 12.659 8.43098C13.4837 9.7952 13.8097 11.3042 13.8319 12.8821C13.8413 13.5472 13.4747 14.0351 12.9563 14.4038C11.8305 15.2045 10.5372 15.4341 9.1914 15.4676C9.11529 15.4695 9.03909 15.4679 8.96292 15.4679Z" fill="#525252"/>
<path d="M6.0124 6.78706C4.22581 8.67803 3.67546 10.9816 3.70123 13.474C2.75684 13.6988 0.740552 13.1463 0.216695 12.2145C0.0124814 11.8512 -0.0227752 11.3388 0.0109532 10.9056C0.142351 9.21781 0.655805 7.67982 2.00673 6.5446C3.20512 5.53752 4.93843 5.63056 6.0124 6.78706Z" fill="#525252"/>
<path d="M14.379 13.5582C14.4605 11.0554 13.935 8.84553 12.2731 7.00939C12.0386 6.75028 12.1692 6.62183 12.3692 6.46495C13.4539 5.61413 14.9983 5.62577 16.0777 6.55399C17.2911 7.59752 17.903 8.9539 17.9818 10.5489C17.9983 10.883 17.9526 11.2223 17.9912 11.5526C18.0458 12.0197 17.8442 12.3416 17.5009 12.6073C16.5814 13.319 15.5165 13.5285 14.379 13.5582Z" fill="#525252"/>
<path d="M6.61438 2.97735C6.62768 1.5977 7.68957 0.525105 9.03507 0.532262C10.4656 0.539876 11.5213 1.59998 11.5119 3.01938C11.5029 4.38138 10.4228 5.44676 9.06267 5.43533C7.65156 5.42348 6.60098 4.36872 6.61438 2.97735Z" fill="#525252"/>
<path d="M3.90815 5.54353C2.76208 5.55088 1.89591 4.68691 1.88582 3.52637C1.87616 2.41624 2.76319 1.52353 3.88083 1.51858C5.0204 1.51353 5.90673 2.39933 5.90892 3.54545C5.91105 4.6665 5.0401 5.53628 3.90815 5.54353Z" fill="#525252"/>
<path d="M14.1679 5.54743C13.0565 5.54757 12.1658 4.66246 12.1573 3.54934C12.1486 2.41653 13.0517 1.51666 14.1884 1.52545C15.314 1.53416 16.1976 2.41096 16.1992 3.52073C16.2008 4.65675 15.3083 5.54727 14.1679 5.54743Z" fill="#525252"/>
</svg>
