<svg width="18" height="20" viewBox="0 0 18 20" fill="none" xmlns="http://www.w3.org/2000/svg">
<path d="M8 10.999H2C0.893701 10.999 0 11.8927 0 12.999V18.3573C0 18.7471 0.224409 19.1171 0.582677 19.2707C2.8622 20.2431 7.1378 20.2431 9.41732 19.2707C9.77559 19.1171 10 18.751 10 18.3573V12.999C10 11.8927 9.1063 10.999 8 10.999Z" fill="#525252"/>
<path d="M5 8.99902C6.65685 8.99902 8 7.65588 8 5.99902C8 4.34217 6.65685 2.99902 5 2.99902C3.34315 2.99902 2 4.34217 2 5.99902C2 7.65588 3.34315 8.99902 5 8.99902Z" fill="#525252"/>
<path d="M15.9999 7.99902H9.99989C9.25186 7.99902 8.60619 8.41635 8.26367 9.02658C10.3463 9.16438 11.9999 10.8849 11.9999 12.999V13.999V16.9636C13.9487 17.0817 16.0432 16.8573 17.4172 16.2707C17.7755 16.1171 17.9999 15.751 17.9999 15.3573V9.99902C17.9999 8.89272 17.1062 7.99902 15.9999 7.99902Z" fill="#525252"/>
<path d="M13 5.99902C14.6569 5.99902 16 4.65588 16 2.99902C16 1.34217 14.6569 -0.000976562 13 -0.000976562C11.3431 -0.000976562 10 1.34217 10 2.99902C10 4.65588 11.3431 5.99902 13 5.99902Z" fill="#525252"/>
</svg>
