<svg width="20" height="18" viewBox="0 0 20 18" fill="none" xmlns="http://www.w3.org/2000/svg">
<path fill-rule="evenodd" clip-rule="evenodd" d="M10.0072 4.7666C6.93666 4.7666 4.95789 7.02825 4.11493 8.24613C3.79222 8.71239 3.76126 9.30695 4.05219 9.79368C4.78493 11.0196 6.5836 13.2372 10.0072 13.2372C13.0666 13.2372 14.999 11.0861 15.854 9.85593C16.2079 9.3467 16.2078 8.68983 15.855 8.17981C14.9982 6.94099 13.0595 4.7666 10.0072 4.7666ZM10.0168 11.649C8.48042 11.649 7.36971 10.4906 7.36971 9.0019C7.36971 7.51266 8.48042 6.35484 10.0168 6.35484C11.5531 6.35484 12.6638 7.51266 12.6638 9.0019C12.6638 10.4906 11.5531 11.649 10.0168 11.649ZM10.0168 7.41366C9.13901 7.41525 8.42854 8.15113 8.42854 9.0019C8.42854 9.85213 9.13901 10.5901 10.0168 10.5901C10.8945 10.5901 11.605 9.8516 11.605 9.0019C11.605 8.1506 10.8945 7.41207 10.0168 7.41366Z" fill="#525252"/>
<path d="M1 1.05859H6.29412" stroke="#525252" stroke-width="2" stroke-linecap="round"/>
<path d="M1 1.05859L1 6.35271" stroke="#525252" stroke-width="2" stroke-linecap="round"/>
<path d="M19 1.05859L19 6.35271" stroke="#525252" stroke-width="2" stroke-linecap="round"/>
<path d="M19 1.05859L13.7059 1.05859" stroke="#525252" stroke-width="2" stroke-linecap="round"/>
<path d="M19 16.9414L13.7059 16.9414" stroke="#525252" stroke-width="2" stroke-linecap="round"/>
<path d="M19 16.9414L19 11.6473" stroke="#525252" stroke-width="2" stroke-linecap="round"/>
<path d="M1 16.9414L1 11.6473" stroke="#525252" stroke-width="2" stroke-linecap="round"/>
<path d="M1 16.9414L6.29412 16.9414" stroke="#525252" stroke-width="2" stroke-linecap="round"/>
</svg>
