<svg width="18" height="20" viewBox="0 0 18 20" fill="none" xmlns="http://www.w3.org/2000/svg">
<path fill-rule="evenodd" clip-rule="evenodd" d="M13.0909 18.1816V17.3635C13.0909 16.9116 13.4572 16.5453 13.9091 16.5453C14.361 16.5453 14.7273 16.9116 14.7273 17.3635V18.1816H16.3636V5.09073H11.4545V18.1816H13.0909ZM4.09091 18.1816V17.3635C4.09091 16.9116 4.45723 16.5453 4.90909 16.5453H6.54545C6.99733 16.5453 7.36364 16.9116 7.36364 17.3635V18.1816H9.81818V1.818H1.63636V18.1816H4.09091ZM11.4545 3.45437H17.1818C17.6337 3.45437 18 3.82068 18 4.27255V18.9998C18 19.4517 17.6337 19.818 17.1818 19.818H0.818182C0.366312 19.818 0 19.4517 0 18.9998V0.999822C0 0.547953 0.366312 0.181641 0.818182 0.181641H10.6364C11.0882 0.181641 11.4545 0.547953 11.4545 0.999822V3.45437ZM4.09091 3.45437C4.54277 3.45437 4.90909 3.82068 4.90909 4.27255C4.90909 4.72441 4.54277 5.09073 4.09091 5.09073C3.63904 5.09073 3.27273 4.72441 3.27273 4.27255C3.27273 3.82068 3.63904 3.45437 4.09091 3.45437ZM4.09091 6.7271C4.54277 6.7271 4.90909 7.0934 4.90909 7.54528C4.90909 7.99715 4.54277 8.36346 4.09091 8.36346C3.63904 8.36346 3.27273 7.99715 3.27273 7.54528C3.27273 7.0934 3.63904 6.7271 4.09091 6.7271ZM13.9091 6.7271C14.361 6.7271 14.7273 7.0934 14.7273 7.54528C14.7273 7.99715 14.361 8.36346 13.9091 8.36346C13.4572 8.36346 13.0909 7.99715 13.0909 7.54528C13.0909 7.0934 13.4572 6.7271 13.9091 6.7271ZM4.09091 9.99982C4.54277 9.99982 4.90909 10.3661 4.90909 10.818C4.90909 11.2699 4.54277 11.6362 4.09091 11.6362C3.63904 11.6362 3.27273 11.2699 3.27273 10.818C3.27273 10.3661 3.63904 9.99982 4.09091 9.99982ZM13.9091 9.99982C14.361 9.99982 14.7273 10.3661 14.7273 10.818C14.7273 11.2699 14.361 11.6362 13.9091 11.6362C13.4572 11.6362 13.0909 11.2699 13.0909 10.818C13.0909 10.3661 13.4572 9.99982 13.9091 9.99982ZM4.09091 13.2725C4.54277 13.2725 4.90909 13.6388 4.90909 14.0907C4.90909 14.5426 4.54277 14.9089 4.09091 14.9089C3.63904 14.9089 3.27273 14.5426 3.27273 14.0907C3.27273 13.6388 3.63904 13.2725 4.09091 13.2725ZM13.9091 13.2725C14.361 13.2725 14.7273 13.6388 14.7273 14.0907C14.7273 14.5426 14.361 14.9089 13.9091 14.9089C13.4572 14.9089 13.0909 14.5426 13.0909 14.0907C13.0909 13.6388 13.4572 13.2725 13.9091 13.2725ZM7.36364 3.45437C7.81551 3.45437 8.18182 3.82068 8.18182 4.27255C8.18182 4.72441 7.81551 5.09073 7.36364 5.09073C6.91176 5.09073 6.54545 4.72441 6.54545 4.27255C6.54545 3.82068 6.91176 3.45437 7.36364 3.45437ZM7.36364 6.7271C7.81551 6.7271 8.18182 7.0934 8.18182 7.54528C8.18182 7.99715 7.81551 8.36346 7.36364 8.36346C6.91176 8.36346 6.54545 7.99715 6.54545 7.54528C6.54545 7.0934 6.91176 6.7271 7.36364 6.7271ZM7.36364 9.99982C7.81551 9.99982 8.18182 10.3661 8.18182 10.818C8.18182 11.2699 7.81551 11.6362 7.36364 11.6362C6.91176 11.6362 6.54545 11.2699 6.54545 10.818C6.54545 10.3661 6.91176 9.99982 7.36364 9.99982ZM7.36364 13.2725C7.81551 13.2725 8.18182 13.6388 8.18182 14.0907C8.18182 14.5426 7.81551 14.9089 7.36364 14.9089C6.91176 14.9089 6.54545 14.5426 6.54545 14.0907C6.54545 13.6388 6.91176 13.2725 7.36364 13.2725Z" fill="#525252"/>
</svg>
