<svg width="52" height="52" viewBox="0 0 52 52" fill="none" xmlns="http://www.w3.org/2000/svg">
<path fill-rule="evenodd" clip-rule="evenodd" d="M26.1626 0C40.3855 0 51.9181 11.4913 51.9181 25.6633C51.9181 39.8353 40.3855 51.3266 26.1626 51.3266C11.9398 51.3266 0.407227 39.8353 0.407227 25.6633C0.407227 11.4913 11.9398 0 26.1626 0Z" fill="#FF7032"/>
<path fill-rule="evenodd" clip-rule="evenodd" d="M25.1984 46.6891C15.26 48.0726 16.1247 27.7354 16.745 19.7607C17.3332 12.1959 20.602 4.87771 25.2755 5.61433C32.2118 3.48453 36.117 11.3087 36.6345 19.4724C37.1456 27.5497 39.5594 47.5121 25.2016 46.6891H25.1984Z" fill="#290C0E"/>
<path fill-rule="evenodd" clip-rule="evenodd" d="M22.4117 21.4577C22.4117 21.4577 23.2731 27.4403 22.2703 29.1185C20.615 31.2131 17.8668 31.8152 13.9455 33.7176C22.4117 53.379 33.5425 48.9337 39.5563 33.9642C33.4814 30.5309 33.1697 30.7551 31.6525 29.1377C30.8169 28.2474 30.5083 25.9799 30.3829 21.1182L22.4085 21.4609L22.4117 21.4577Z" fill="#FFCCA9"/>
<path fill-rule="evenodd" clip-rule="evenodd" d="M22.5114 22.2432L30.4665 23.3609C30.6304 26.7045 30.9615 28.3956 31.6558 29.1354C31.6751 29.1546 31.6943 29.177 31.7136 29.1962C26.227 30.9161 23.5431 27.2874 22.6946 24.2769C22.6431 23.4826 22.5692 22.7588 22.5114 22.2432Z" fill="#F4A56E"/>
<path fill-rule="evenodd" clip-rule="evenodd" d="M20.0042 15.6546C19.4032 15.6546 19.0432 16.9997 19.3839 18.3032C19.7214 19.6067 19.9078 20.7757 20.5088 20.7789C21.1099 20.7789 20.8431 19.9366 20.8496 18.4121C20.8528 16.8908 20.6053 15.6546 20.0042 15.6514V15.6546Z" fill="#FFCCA9"/>
<path fill-rule="evenodd" clip-rule="evenodd" d="M20.1907 16.1378C19.9207 16.1057 19.7471 16.8167 19.6796 17.1786C19.6153 17.5406 19.6218 18.511 19.8307 19.0042C19.9978 19.4045 20.2485 20.4742 20.3675 19.1899C20.3996 18.8601 20.226 18.7928 20.1585 18.3861C20.091 17.9793 20.2903 17.7167 20.3932 17.6046C20.7821 17.1722 20.4446 16.1666 20.1875 16.1378H20.1907Z" fill="#F4A56E"/>
<path fill-rule="evenodd" clip-rule="evenodd" d="M33.581 15.6709C34.1821 15.6709 34.5324 17.0224 34.1885 18.3227C33.8414 19.623 33.6517 20.792 33.0507 20.792C32.4496 20.792 32.7196 19.9465 32.7228 18.4252C32.726 16.9039 32.98 15.6677 33.581 15.6709Z" fill="#FFCCA9"/>
<path fill-rule="evenodd" clip-rule="evenodd" d="M33.3881 16.1536C33.6581 16.1248 33.8285 16.8326 33.8928 17.1977C33.9571 17.5596 33.9442 18.53 33.7353 19.0232C33.5649 19.4236 33.311 20.4933 33.1953 19.2058C33.1664 18.8759 33.3367 18.8086 33.4074 18.4019C33.4781 17.9951 33.2789 17.7325 33.176 17.6172C32.7903 17.1817 33.131 16.1792 33.3881 16.1504V16.1536Z" fill="#F4A56E"/>
<path fill-rule="evenodd" clip-rule="evenodd" d="M26.7605 7.78223C33.6132 7.78223 33.0218 11.8433 33.0057 17.4032C32.9896 22.9599 29.1808 26.6622 26.6448 26.438C24.3531 26.3579 20.5282 23.1328 20.5442 17.5729C20.5571 13.3229 20.0589 9.85758 23.0224 8.45159C23.9352 8.01923 25.1502 7.78223 26.7637 7.78223H26.7605Z" fill="#FFCCA9"/>
<path fill-rule="evenodd" clip-rule="evenodd" d="M20.4992 16.3568C21.3446 13.0227 21.3028 11.9691 24.3948 9.49336C28.0687 13.4487 32.3243 12.1004 33.0636 16.9429C33.97 16.2767 33.6807 14.6145 33.6357 13.8554C33.52 10.1851 30.1193 6.20097 26.7091 6.62373C21.8428 7.58775 20.9749 9.02897 19.4578 14.8707L20.4992 16.3568Z" fill="#290C0E"/>
<path fill-rule="evenodd" clip-rule="evenodd" d="M44.7279 43.4482L43.5997 37.4464C43.2943 35.8514 41.504 34.1508 39.8262 33.4846C37.5988 32.4085 35.9981 32.037 33.9603 30.8584C31.4918 41.011 20.3996 38.0164 19.9592 30.9064C17.0311 31.9729 16.6004 32.2996 13.5758 33.4686C13.5758 33.4686 10.3263 34.5223 9.50663 37.7506L8.01202 43.8678C12.6694 48.4797 19.0817 51.3301 26.1658 51.3301C33.25 51.3301 40.0448 48.3067 44.7311 43.4514L44.7279 43.4482Z" fill="#19AEBB"/>
</svg>
