<svg width="52" height="52" viewBox="0 0 52 52" fill="none" xmlns="http://www.w3.org/2000/svg">
<path fill-rule="evenodd" clip-rule="evenodd" d="M26.0069 0C40.2298 0 51.7624 11.4881 51.7624 25.6633C51.7624 39.8385 40.2298 51.3266 26.0069 51.3266C11.7841 51.3266 0.251526 39.8353 0.251526 25.6633C0.251526 11.4913 11.7809 0 26.0069 0Z" fill="#19AEBB"/>
<path fill-rule="evenodd" clip-rule="evenodd" d="M17.9232 27.5366C15.5607 18.3768 18.6078 4.59239 25.1166 5.61726C34.5085 2.76685 37.9573 17.1854 34.682 26.9409C34.3863 26.9089 24.268 22.9407 17.9232 27.5334V27.5366Z" fill="#FFC166"/>
<path fill-rule="evenodd" clip-rule="evenodd" d="M22.2559 21.4577C22.2559 21.4577 23.1174 27.4403 22.1145 29.1185C20.4592 31.2131 17.7111 31.8152 13.7897 33.7176C22.2559 53.379 33.3867 48.9337 39.4005 33.9642C33.3257 30.5309 33.0139 30.7551 31.4968 29.1377C30.6611 28.2474 30.3525 25.9799 30.2272 21.1182L22.2527 21.4609L22.2559 21.4577Z" fill="#FFCCA9"/>
<path fill-rule="evenodd" clip-rule="evenodd" d="M22.3556 22.2432L30.3107 23.3609C30.4747 26.7045 30.8057 28.3956 31.5 29.1354C31.5193 29.1546 31.5386 29.177 31.5579 29.1962C26.0712 30.9161 23.3874 27.2874 22.5388 24.2769C22.4874 23.4826 22.4134 22.7588 22.3556 22.2432Z" fill="#F4A56E"/>
<path fill-rule="evenodd" clip-rule="evenodd" d="M19.8453 15.6546C19.2442 15.6546 18.8842 16.9997 19.2249 18.3032C19.5624 19.6067 19.7489 20.7757 20.3499 20.7789C20.951 20.7789 20.6842 19.9366 20.6906 18.4121C20.6938 16.8908 20.4463 15.6546 19.8453 15.6514V15.6546Z" fill="#FFCCA9"/>
<path fill-rule="evenodd" clip-rule="evenodd" d="M20.0349 16.1378C19.7649 16.1057 19.5914 16.8167 19.5271 17.1786C19.4628 17.5406 19.4692 18.511 19.6782 19.0042C19.8453 19.4045 20.096 20.4742 20.2149 19.1899C20.2471 18.8601 20.0735 18.7928 20.006 18.3861C19.9385 17.9793 20.1378 17.7167 20.2406 17.6046C20.6296 17.1722 20.2921 16.1666 20.0349 16.1378Z" fill="#F4A56E"/>
<path fill-rule="evenodd" clip-rule="evenodd" d="M33.4221 15.6709C34.0231 15.6709 34.3735 17.0224 34.0296 18.3227C33.6856 19.623 33.4928 20.792 32.8917 20.792C32.2907 20.792 32.5607 19.9465 32.5639 18.4252C32.5671 16.9039 32.821 15.6677 33.4221 15.6709Z" fill="#FFCCA9"/>
<path fill-rule="evenodd" clip-rule="evenodd" d="M33.2325 16.1536C33.5025 16.1248 33.6728 16.8358 33.7371 17.1977C33.8014 17.5596 33.7885 18.53 33.5764 19.0232C33.406 19.4236 33.1521 20.4933 33.0364 19.2058C33.0075 18.8759 33.1778 18.8086 33.2486 18.4019C33.3161 17.9951 33.12 17.7325 33.0171 17.6172C32.6314 17.1817 32.9721 16.1792 33.2293 16.1504L33.2325 16.1536Z" fill="#F4A56E"/>
<path fill-rule="evenodd" clip-rule="evenodd" d="M26.6016 7.78263C33.4543 7.78263 32.8629 11.8437 32.8468 17.4036C32.8307 22.9603 29.0219 26.6626 26.4859 26.4384C24.1941 26.3583 20.3692 23.1332 20.3853 17.5733C20.3982 13.3233 20.816 9.59216 23.7763 8.18617C24.6891 7.7538 24.9881 7.78263 26.6016 7.78263Z" fill="#FFCCA9"/>
<path fill-rule="evenodd" clip-rule="evenodd" d="M20.1571 15.6451C22.2013 15.5714 25.6598 15.2383 29.7868 15.4657C29.9411 14.9085 29.8704 15.1134 29.9893 14.1846C30.0986 14.8764 30.1018 14.902 30.1597 15.5042C30.8732 15.5586 32.2329 15.6707 32.9882 15.7604C33.8817 11.3823 31.6768 6.62305 25.9555 6.62305C20.1924 7.60628 20.0349 9.35816 20.1539 15.6483L20.1571 15.6451Z" fill="#FFC166"/>
<path fill-rule="evenodd" clip-rule="evenodd" d="M44.5722 43.4482L43.444 37.4464C43.1387 35.8514 41.3484 34.1508 39.6706 33.4846C37.4431 32.4085 35.8424 32.037 33.8046 30.8584C31.3361 41.011 20.2439 38.0164 19.8036 30.9064C16.8754 31.9729 16.4447 32.2996 13.4169 33.4686C13.4169 33.4686 10.1674 34.5223 9.34776 37.7506L7.85315 43.8646C12.5105 48.4765 18.9261 51.3269 26.007 51.3269C33.0879 51.3269 39.8859 48.3035 44.5722 43.4482Z" fill="#035A6E"/>
</svg>
