<svg width="53" height="52" viewBox="0 0 53 52" fill="none" xmlns="http://www.w3.org/2000/svg">
<path fill-rule="evenodd" clip-rule="evenodd" d="M26.7391 0C40.9619 0 52.4945 11.4913 52.4945 25.6633C52.4945 39.8353 40.9619 51.3266 26.7391 51.3266C12.5162 51.3266 0.983643 39.8353 0.983643 25.6633C0.983643 11.4913 12.5162 0 26.7391 0Z" fill="#FF7032"/>
<path fill-rule="evenodd" clip-rule="evenodd" d="M25.8456 9.23707C31.1972 8.53888 34.7939 11.338 34.6075 17.9132C34.3536 26.852 31.0686 28.117 27.2984 28.2163C22.326 28.3508 20.0761 24.1361 19.7804 19.822C19.43 14.7137 21.6157 9.24668 25.8456 9.23707Z" fill="#290C0E"/>
<path fill-rule="evenodd" clip-rule="evenodd" d="M22.9688 25.1698C22.9688 25.1698 23.8366 31.1877 22.8274 32.8756C21.1624 34.9829 18.3982 35.5882 14.4543 37.5003C22.9688 57.277 34.1638 52.806 40.213 37.7469C34.1028 34.2944 33.791 34.5185 32.2643 32.8916C31.4253 31.9948 31.1136 29.7145 30.985 24.8271L22.9656 25.1698H22.9688Z" fill="#FFCCA9"/>
<path fill-rule="evenodd" clip-rule="evenodd" d="M23.0684 25.9619L31.0686 27.0861C31.2325 30.4489 31.5668 32.1495 32.2642 32.8958C32.2835 32.915 32.3028 32.9374 32.3221 32.9566C26.8033 34.6861 24.1034 31.0382 23.2516 28.0084C23.2002 27.2078 23.1263 26.4808 23.0652 25.9619H23.0684Z" fill="#F4A56E"/>
<path fill-rule="evenodd" clip-rule="evenodd" d="M20.5453 19.3343C19.941 19.3343 19.581 20.689 19.9217 21.9989C20.2624 23.3088 20.4488 24.4874 21.0531 24.4874C21.6574 24.4874 21.3906 23.6387 21.3938 22.1078C21.397 20.5769 21.1495 19.3343 20.5453 19.3311V19.3343Z" fill="#FFCCA9"/>
<path fill-rule="evenodd" clip-rule="evenodd" d="M20.7349 19.8214C20.4649 19.7893 20.2882 20.5035 20.2239 20.8686C20.1564 21.2337 20.166 22.2074 20.375 22.707C20.5421 23.1073 20.796 24.1866 20.9149 22.896C20.9471 22.5629 20.7735 22.4956 20.706 22.0857C20.6385 21.6757 20.8378 21.4131 20.9407 21.2978C21.3296 20.8622 20.9953 19.8534 20.7349 19.8214Z" fill="#F4A56E"/>
<path fill-rule="evenodd" clip-rule="evenodd" d="M34.1992 19.3496C34.8035 19.3496 35.1571 20.7108 34.8099 22.0175C34.4628 23.3274 34.2699 24.5028 33.6657 24.4996C33.0614 24.4996 33.3314 23.6476 33.3378 22.12C33.3411 20.5891 33.595 19.3464 34.2025 19.3496H34.1992Z" fill="#FFCCA9"/>
<path fill-rule="evenodd" clip-rule="evenodd" d="M34.0096 19.834C34.2796 19.802 34.4532 20.5194 34.5175 20.8845C34.5817 21.2496 34.5689 22.2233 34.3567 22.7197C34.1864 23.12 33.9293 24.1961 33.8135 22.9054C33.7846 22.5756 33.9582 22.5051 34.0257 22.0984C34.0964 21.6884 33.8971 21.4258 33.7943 21.3105C33.4053 20.8717 33.7493 19.8629 34.0064 19.834H34.0096Z" fill="#F4A56E"/>
<path fill-rule="evenodd" clip-rule="evenodd" d="M27.3401 11.4185C34.2346 11.4185 33.6367 15.5051 33.6207 21.0939C33.6046 26.6826 29.7732 30.4073 27.2212 30.18C24.9166 30.0999 21.0692 26.8555 21.0853 21.2636C21.0981 16.9912 21.5192 13.2376 24.4987 11.822C25.418 11.3865 25.7169 11.4185 27.3401 11.4185Z" fill="#FFCCA9"/>
<path fill-rule="evenodd" clip-rule="evenodd" d="M25.8616 11.6995C33.325 11.645 33.9485 4.69197 27.0091 4.72079C23.512 4.724 19.0089 9.13412 25.8616 11.6995Z" fill="#290C0E"/>
<path fill-rule="evenodd" clip-rule="evenodd" d="M44.79 43.9663L44.279 41.2504C43.9736 39.6459 42.1705 37.9356 40.483 37.2663C38.2427 36.1837 36.6324 35.809 34.5817 34.624C32.1004 44.8343 20.9406 41.8237 20.5003 34.6721C17.5561 35.745 17.1222 36.0716 14.0783 37.247C14.0783 37.247 10.8095 38.3071 9.98341 41.5515L9.26343 44.5044C13.8565 48.7352 19.9957 51.3197 26.7423 51.3197C33.4889 51.3197 40.1455 48.511 44.79 43.9599V43.9663Z" fill="#FFC166"/>
<path fill-rule="evenodd" clip-rule="evenodd" d="M21.4035 20.6217C22.252 17.2685 27.8319 17.4222 30.2265 13.6078C33.4953 16.9258 32.8525 17.355 33.2703 20.6762C33.9453 19.6193 34.0514 17.592 34.0064 16.8265C33.8906 13.1338 30.6989 9.70371 27.2662 10.1297C22.3742 11.0969 21.5192 12.8456 19.9924 18.7193C20.9181 19.315 21.0146 19.5841 21.4003 20.6249L21.4035 20.6217Z" fill="#290C0E"/>
</svg>
