<svg width="53" height="52" viewBox="0 0 53 52" fill="none" xmlns="http://www.w3.org/2000/svg">
<path fill-rule="evenodd" clip-rule="evenodd" d="M26.2594 0C40.4823 0 52.0149 11.4913 52.0149 25.6633C52.0149 39.8353 40.4855 51.3266 26.2594 51.3266C12.0334 51.3266 0.504028 39.8353 0.504028 25.6633C0.504028 11.4913 12.0366 0 26.2594 0Z" fill="#FF7032"/>
<path fill-rule="evenodd" clip-rule="evenodd" d="M33.8289 19.747C32.4725 22.9945 32.4178 26.7289 26.9601 26.556C21.1906 26.3702 21.6374 23.5903 19.9821 20.4964C17.0314 14.9718 18.7285 5.73196 25.4205 6.51022C34.0764 4.4797 36.9981 12.163 33.8289 19.7502V19.747Z" fill="#290C0E"/>
<path fill-rule="evenodd" clip-rule="evenodd" d="M22.5085 21.4577C22.5085 21.4577 23.3699 27.4403 22.367 29.1185C20.7117 31.2131 17.9636 31.8152 14.0422 33.7176C22.5085 53.379 33.6392 48.9337 39.653 33.9642C33.5782 30.5309 33.2664 30.7551 31.7493 29.1377C30.9136 28.2474 30.605 25.9799 30.4797 21.1182L22.5052 21.4609L22.5085 21.4577Z" fill="#FFCCA9"/>
<path fill-rule="evenodd" clip-rule="evenodd" d="M22.6082 22.2432L30.5633 23.3609C30.7272 26.7045 31.0583 28.3956 31.7526 29.1354C31.7719 29.1546 31.7911 29.177 31.8104 29.1962C26.3238 30.9161 23.6399 27.2874 22.7914 24.2769C22.7399 23.4826 22.666 22.7588 22.6082 22.2432Z" fill="#F4A56E"/>
<path fill-rule="evenodd" clip-rule="evenodd" d="M20.101 15.6543C19.5 15.6543 19.14 16.9994 19.4807 18.3029C19.8182 19.6064 20.0046 20.7754 20.6056 20.7786C21.2067 20.7786 20.9399 19.9363 20.9464 18.415C20.9496 16.8937 20.7021 15.6575 20.101 15.6543Z" fill="#FFCCA9"/>
<path fill-rule="evenodd" clip-rule="evenodd" d="M20.2875 16.1378C20.0175 16.1057 19.8439 16.8167 19.7764 17.1786C19.7121 17.5406 19.7186 18.511 19.9275 19.0042C20.0946 19.4045 20.3453 20.4742 20.4643 19.1899C20.4964 18.8601 20.3228 18.7928 20.2553 18.3861C20.1878 17.9793 20.3871 17.7167 20.49 17.6046C20.8789 17.1722 20.5414 16.1666 20.2843 16.1378H20.2875Z" fill="#F4A56E"/>
<path fill-rule="evenodd" clip-rule="evenodd" d="M33.6778 15.6709C34.2789 15.6709 34.6292 17.0224 34.2853 18.3227C33.9382 19.623 33.7485 20.792 33.1475 20.792C32.5464 20.792 32.8164 19.9465 32.8196 18.4252C32.8228 16.9039 33.0768 15.6677 33.6778 15.6709Z" fill="#FFCCA9"/>
<path fill-rule="evenodd" clip-rule="evenodd" d="M33.4849 16.1536C33.7549 16.1248 33.9253 16.8326 33.9896 17.1977C34.0539 17.5596 34.041 18.53 33.8321 19.0232C33.6617 19.4236 33.4078 20.4933 33.2921 19.2058C33.2632 18.8759 33.4335 18.8086 33.5042 18.4019C33.5749 17.9951 33.3757 17.7325 33.2728 17.6172C32.8871 17.1817 33.2278 16.1792 33.4849 16.1504V16.1536Z" fill="#F4A56E"/>
<path fill-rule="evenodd" clip-rule="evenodd" d="M26.8573 7.78223C33.71 7.78223 33.1186 11.8433 33.1025 17.4032C33.0864 22.9598 29.2776 26.6622 26.7416 26.438C24.4499 26.3579 20.625 23.1328 20.641 17.5729C20.6539 13.3229 20.1557 9.85758 23.1192 8.45159C24.032 8.01923 25.247 7.78223 26.8605 7.78223H26.8573Z" fill="#FFCCA9"/>
<path fill-rule="evenodd" clip-rule="evenodd" d="M20.596 16.307C21.4414 12.9729 21.3996 11.9193 24.4916 9.44356C28.1655 13.3989 32.4211 12.0506 33.1604 16.8931C34.0668 16.2269 33.7775 14.5647 33.7325 13.8056C33.6168 10.1353 30.2161 6.15117 26.8059 6.57393C21.9396 7.53794 21.0717 8.97916 19.5546 14.8209L20.596 16.307Z" fill="#290C0E"/>
<path fill-rule="evenodd" clip-rule="evenodd" d="M44.8247 43.4482L43.6965 37.4464C43.3912 35.8514 41.6009 34.1508 39.9231 33.4846C37.6956 32.4085 36.0949 32.037 34.0571 30.8584C32.8839 35.6561 30.1229 43.8454 27.0245 44.6332C23.7138 43.6628 20.2811 34.628 20.0528 30.9096C17.1247 31.9761 16.694 32.3028 13.6694 33.4718C13.6694 33.4718 10.4199 34.5223 9.60026 37.7538L8.10565 43.871C12.763 48.4829 19.1754 51.3333 26.2595 51.3333C33.3436 51.3333 40.1384 48.31 44.8247 43.4547V43.4482Z" fill="#4ED6DE"/>
</svg>
