<svg width="52" height="52" viewBox="0 0 52 52" fill="none" xmlns="http://www.w3.org/2000/svg">
<path fill-rule="evenodd" clip-rule="evenodd" d="M26.1038 0C40.3267 0 51.8592 11.4913 51.8592 25.6633C51.8592 39.8353 40.3267 51.3266 26.1038 51.3266C11.881 51.3266 0.348389 39.8385 0.348389 25.6633C0.348389 11.4881 11.881 0 26.1038 0Z" fill="#19AEBB"/>
<path fill-rule="evenodd" clip-rule="evenodd" d="M38.5396 32.7324C38.5645 32.7355 38.5864 32.7418 38.6114 32.748C38.5864 32.7418 38.5645 32.7386 38.5396 32.7324Z" fill="#36393A"/>
<path fill-rule="evenodd" clip-rule="evenodd" d="M15.5483 32.154C15.5733 32.1447 15.6014 32.1353 15.6264 32.126C15.6014 32.1353 15.5764 32.1447 15.5483 32.154Z" fill="#36393A"/>
<path fill-rule="evenodd" clip-rule="evenodd" d="M35.8429 31.3742C34.8047 30.897 32.6383 30.2244 32.4101 28.6199C32.2815 27.7039 32.2751 26.8104 32.2719 26.6182C32.2655 25.7439 32.2912 24.8471 32.3715 23.9119C31.1983 26.093 29.257 27.4861 26.4349 27.4285C24.4614 27.3869 22.7193 25.7503 21.5911 23.582C21.7389 24.7254 21.8225 25.8175 21.8514 26.9032C21.8514 26.9513 21.8418 27.3036 21.8289 27.6751C21.7743 29.2764 19.9968 30.4294 18.4219 30.9739C22.4589 37.9846 31.4812 38.1351 35.8396 31.3838L35.8429 31.3742Z" fill="#FFCCA9"/>
<path fill-rule="evenodd" clip-rule="evenodd" d="M26.4509 27.4544C29.2697 27.512 31.2111 26.1188 32.3875 23.9378C32.7925 23.1852 33.1075 22.3396 33.3325 21.4269C33.3196 20.9497 33.4803 20.1874 33.5478 19.1626C33.5993 18.3811 33.7053 17.6669 33.8725 17.1096C33.8725 17.1064 33.8725 17.1032 33.8725 17.0968C33.85 17.1256 33.8275 17.1545 33.805 17.1865C33.6828 15.2104 33.0079 11.7739 32.725 10.9284C32.0854 10.3999 31.2979 9.32063 24.5802 9.5192C23.7992 9.29501 21.6585 10.9124 21.6328 10.954C21.3949 11.3287 21.0703 12.0782 20.871 13.1895C20.2153 16.8726 20.5464 15.8381 20.3278 17.1897C20.2925 17.1641 20.2025 17.0648 20.0803 16.9335C20.09 17.0199 20.0964 17.1064 20.106 17.1929C20.241 17.7245 20.3278 18.3811 20.3664 19.0889C20.3953 19.6462 20.4564 20.1234 20.5014 20.5205C20.7296 21.5934 21.1089 22.6535 21.6071 23.6079C22.7353 25.7793 24.4741 27.4159 26.4509 27.4544Z" fill="#FFCCA9"/>
<path fill-rule="evenodd" clip-rule="evenodd" d="M20.3279 17.1856C20.5465 15.8341 20.2154 16.8718 20.8711 13.1855C21.0704 12.0773 21.5622 11.4176 21.8 11.0428C22.2468 10.3382 32.5387 12.2118 32.574 12.2407C32.8601 13.0862 33.4162 15.4978 33.8051 17.1824C33.8308 17.1536 33.8533 17.1216 33.8726 17.0928C33.8726 17.0928 33.8726 17.0896 33.8758 17.0863C34.0976 16.3561 34.4222 15.8981 34.8626 15.927C34.9076 15.927 34.9493 15.9398 34.9879 15.9526C35.5761 9.71051 32.2944 5.72634 26.0139 4.34277C26.4799 4.90645 26.4703 5.16587 26.4156 5.91851C24.4903 4.73991 23.6385 4.58939 22.5425 4.65985C23.6932 6.021 23.8796 6.57507 23.5711 6.78004C22.6904 6.32846 22.5329 5.95054 21.7807 5.00254C22.9121 6.67756 18.8012 11.7699 19.1387 15.8405C19.9936 15.8405 19.7526 16.7949 20.3311 17.1856H20.3279Z" fill="#FF7032"/>
<path fill-rule="evenodd" clip-rule="evenodd" d="M33.0776 11.5498C33.0776 11.5498 33.0685 11.5648 33.0625 11.5709C33.0716 11.5648 33.0746 11.5588 33.0776 11.5498Z" fill="white"/>
<path fill-rule="evenodd" clip-rule="evenodd" d="M32.4968 12.2061C32.5218 12.2185 32.5437 12.2278 32.5687 12.2403C32.5655 12.2309 32.5374 12.2185 32.4968 12.2061Z" fill="white"/>
<path fill-rule="evenodd" clip-rule="evenodd" d="M20.6332 14.6555C20.6332 14.6555 20.614 14.6555 20.6075 14.6523C20.6172 14.6587 20.6236 14.6588 20.6332 14.6555Z" fill="white"/>
<path fill-rule="evenodd" clip-rule="evenodd" d="M20.1607 17.1878C20.1318 17.0693 20.0965 16.9573 20.0611 16.8516C19.849 16.2142 19.5436 15.8203 19.1386 15.8427C19.0358 15.8491 18.9426 15.8843 18.8558 15.942C18.2804 16.3199 18.0619 17.7323 18.5215 19.0646C19.0486 20.5987 19.3701 21.9887 20.1479 21.9471C20.6879 21.9182 20.6589 21.4282 20.5561 20.5219C20.5111 20.1247 20.4532 19.6443 20.4211 19.0903C20.3825 18.3793 20.2957 17.7259 20.1607 17.1942V17.1878ZM19.534 19.1031C19.6497 19.5835 19.8747 19.6539 19.8586 20.0511C19.7943 21.598 19.3958 20.3329 19.1515 19.8685C18.8493 19.292 18.7722 18.1326 18.8301 17.6939C18.8879 17.2551 19.0679 16.3904 19.4151 16.4096C19.7493 16.4256 20.254 17.6042 19.7815 18.1519C19.6593 18.296 19.4183 18.6227 19.534 19.1063V19.1031Z" fill="#FFCCA9"/>
<path fill-rule="evenodd" clip-rule="evenodd" d="M19.415 16.4085C19.0647 16.3893 18.8879 17.254 18.8301 17.6928C18.7722 18.1315 18.8493 19.2909 19.1515 19.8674C19.3957 20.335 19.7943 21.5969 19.8586 20.05C19.8747 19.6528 19.6497 19.5856 19.534 19.102C19.4183 18.6216 19.6593 18.2917 19.7815 18.1475C20.2539 17.5999 19.7493 16.4213 19.415 16.4053V16.4085Z" fill="#F4A56E"/>
<path fill-rule="evenodd" clip-rule="evenodd" d="M33.8789 17.0894C33.8789 17.0894 33.8789 17.099 33.8725 17.1054C33.7054 17.6627 33.5993 18.3769 33.5479 19.1583C33.4804 20.1832 33.3197 20.9454 33.3325 21.4226C33.3422 21.7942 33.4547 21.9959 33.7921 22.0183C34.5668 22.0696 34.9043 20.6828 35.4475 19.1551C35.9617 17.7107 35.6757 16.167 34.9878 15.9556C34.946 15.9428 34.9043 15.9332 34.8625 15.93C34.4221 15.9012 34.0975 16.3592 33.8757 17.0894H33.8789ZM34.8111 19.9558C34.5636 20.4202 34.1489 21.6789 34.1007 20.1319C34.0879 19.7348 34.3161 19.6675 34.435 19.1871C34.5539 18.7067 34.3193 18.3737 34.1971 18.2295C33.7311 17.6787 34.2454 16.5033 34.5828 16.4905C34.9332 16.4745 35.1003 17.3392 35.155 17.7812C35.2096 18.2199 35.1196 19.3793 34.8111 19.9526V19.9558Z" fill="#FFCCA9"/>
<path fill-rule="evenodd" clip-rule="evenodd" d="M34.5796 16.4943C34.2454 16.5071 33.7311 17.6825 34.1939 18.2334C34.3161 18.3775 34.5507 18.7106 34.4318 19.191C34.3129 19.6714 34.0847 19.7386 34.0975 20.1358C34.1457 21.6827 34.5571 20.424 34.8079 19.9596C35.1164 19.3863 35.2064 18.2269 35.1518 17.785C35.0971 17.3462 34.93 16.4815 34.5796 16.4943Z" fill="#F4A56E"/>
<path fill-rule="evenodd" clip-rule="evenodd" d="M32.9082 29.6696C27.8201 30.3358 22.536 26.5694 21.6135 23.6069V23.6133H21.6167C21.6264 23.6325 21.636 23.6485 21.6457 23.6677V23.6741H21.6489V23.6773V23.6805C21.6553 23.6966 21.665 23.7094 21.6714 23.7254V23.7318L21.6746 23.7414L21.681 23.7542L21.7035 23.7926V23.799H21.7067V23.8022V23.8054L21.7357 23.8567V23.8631V23.8663L21.7453 23.8823V23.8855L21.7678 23.9239L21.7742 23.9368C21.7839 23.9528 21.7935 23.9688 21.8032 23.988L21.8096 23.9976C21.8192 24.0136 21.8257 24.0264 21.8353 24.0424V24.0488H21.8385V24.0521L21.8482 24.0649V24.0681L21.8739 24.1097L21.8835 24.1225V24.1257V24.1289C21.8899 24.1417 21.8996 24.1545 21.906 24.1641L21.9157 24.1802L21.9382 24.2154L21.9478 24.2314L21.9703 24.2666L21.9767 24.2762V24.2794L22.0024 24.3147L22.0089 24.3243L22.041 24.3691L22.0474 24.3787V24.3851L22.0539 24.3947L22.0764 24.4268L22.0828 24.4396L22.0957 24.4556V24.4588L22.1182 24.4908L22.1278 24.5068V24.51V24.5132C22.1278 24.5132 22.1406 24.5325 22.1503 24.5421L22.1632 24.5581C22.1632 24.5581 22.1824 24.5837 22.1953 24.5965L22.2017 24.6061V24.6093L22.2146 24.6253C22.221 24.6349 22.2307 24.6446 22.2371 24.6542L22.2467 24.667V24.6702V24.6734L22.266 24.699L22.2789 24.715L22.3014 24.7438L22.3239 24.7727L22.3335 24.7855L22.3464 24.7983L22.3689 24.8239L22.3849 24.8399C22.3849 24.8399 22.401 24.8591 22.4106 24.8687L22.4267 24.8848C22.4267 24.8848 22.4428 24.9008 22.4492 24.9104L22.4653 24.9264C22.4653 24.9264 22.4781 24.9424 22.4878 24.9488L22.5071 24.968C22.5135 24.9744 22.5199 24.9808 22.5264 24.9872L22.5392 25.0033H22.5424V25.0065V25.0097H22.5456V25.0129L22.5681 25.0353L22.581 25.0513L22.6067 25.0769L22.6228 25.0929L22.6421 25.1121L22.6678 25.1378L22.6839 25.1538L22.6903 25.1602L22.6999 25.1666L22.716 25.1826L22.7353 25.1986C22.7449 25.205 22.7514 25.2114 22.7578 25.221L22.7738 25.2371L22.7964 25.2563V25.2595L22.8124 25.2723L22.8349 25.2915V25.2947L22.851 25.3075L22.8767 25.3299H22.8799V25.3331L22.8863 25.3395V25.3427L22.8992 25.3556L22.9185 25.3684H22.9217V25.3716L22.9378 25.3844L22.9506 25.394L22.9667 25.4068L22.9892 25.4228L22.9988 25.4292L23.0053 25.4356L23.0181 25.4452L23.031 25.4548L23.0374 25.4612L23.0438 25.4644L23.0599 25.4773L23.0824 25.4933C23.0824 25.4933 23.1017 25.5093 23.1113 25.5157L23.121 25.5221L23.1306 25.5285H23.1338L23.1403 25.5317H23.1435L23.1563 25.5381L23.166 25.5445L23.1981 25.5669L23.2046 25.5733C23.211 25.5765 23.2174 25.5797 23.2238 25.5862L23.2463 25.6022L23.256 25.6086L23.2817 25.6246L23.2881 25.6278L23.2978 25.6342L23.317 25.647H23.3203L23.3267 25.6502L23.3492 25.663C23.3492 25.663 23.3588 25.6694 23.3621 25.6694L23.3781 25.679H23.3813L23.407 25.6918L23.4167 25.6982L23.4328 25.7079L23.4681 25.7239H23.4745V25.7271L23.4938 25.7367L23.5099 25.7463H23.5195V25.7495L23.542 25.7591L23.5581 25.7655H23.5645C23.5742 25.7687 23.5806 25.7719 23.5903 25.7751H23.5967L23.6256 25.7879H23.6288L23.6481 25.7943C23.661 25.7975 23.6738 25.8039 23.6835 25.8071H23.6867C23.6867 25.8071 23.7092 25.8135 23.7188 25.8167L23.7413 25.8231C23.7542 25.8264 23.767 25.8328 23.7799 25.836H23.7895H23.7928C23.7928 25.836 23.812 25.8424 23.8217 25.8424L23.8442 25.8488L23.8635 25.8552C23.8635 25.8552 23.886 25.8616 23.8956 25.8648C23.8956 25.8648 23.9213 25.8712 23.9342 25.8744L23.9535 25.8776C23.9695 25.8776 23.9824 25.884 23.9985 25.8872H24.0177V25.8904C24.0338 25.8936 24.0531 25.8968 24.0692 25.9H24.082C24.0949 25.9 24.111 25.9032 24.1238 25.9064H24.1463C24.1752 25.9096 24.2042 25.916 24.2363 25.9192C24.2556 25.9192 24.2749 25.9224 24.2942 25.9256H24.307C24.336 25.9256 24.3681 25.932 24.397 25.932C24.426 25.932 24.4581 25.9352 24.487 25.9385C24.5192 25.9385 24.5481 25.9385 24.5802 25.9385C27.3991 25.9961 29.3405 24.6029 30.5169 22.4219C30.4365 23.3603 30.4108 24.2538 30.4172 25.1282C30.4172 25.3203 30.4269 26.2171 30.5554 27.1299C30.6133 27.5366 30.7933 27.8825 31.0504 28.1835L32.9082 29.6696Z" fill="#F4A56E"/>
<path fill-rule="evenodd" clip-rule="evenodd" d="M47.8028 39.4918C47.4236 37.6983 46.7454 36.1802 45.0001 35.0176C41.9434 32.9775 35.9714 31.4947 33.7375 30.1751C31.3301 37.4933 21.1892 35.9368 19.9486 30.0566C17.3193 31.0143 10.2899 32.6604 7.61887 35.0785C6.92782 35.703 6.29783 37.5606 6.12427 38.3004L5.6582 41.2693C10.367 47.3833 17.7725 51.3226 26.1005 51.3226C35.2128 51.3226 43.2226 46.605 47.7996 39.4886L47.8028 39.4918Z" fill="#FFC166"/>
</svg>
