<svg width="53" height="52" viewBox="0 0 53 52" fill="none" xmlns="http://www.w3.org/2000/svg">
<path fill-rule="evenodd" clip-rule="evenodd" d="M26.3235 0C40.5464 0 52.079 11.4913 52.079 25.6633C52.079 39.8353 40.5464 51.3266 26.3235 51.3266C12.1007 51.3266 0.568115 39.8353 0.568115 25.6633C0.568115 11.4913 12.1007 0 26.3235 0Z" fill="#FF7032"/>
<path fill-rule="evenodd" clip-rule="evenodd" d="M19.6669 23.3022C16.8866 17.0762 18.6094 5.94678 25.9056 6.34711C35.2526 4.69772 37.1779 15.6574 33.9122 23.693C32.2248 27.8437 21.7079 27.8757 19.6669 23.3022Z" fill="#B73823"/>
<path fill-rule="evenodd" clip-rule="evenodd" d="M22.5758 21.4577C22.5758 21.4577 23.4372 27.4403 22.4344 29.1185C20.7791 31.2131 18.0309 31.8152 14.1096 33.7176C22.5758 53.379 33.7034 48.9337 39.7204 33.9642C33.6456 30.5309 33.3338 30.7551 31.8167 29.1377C30.981 28.2474 30.6724 25.9799 30.5471 21.1182L22.5726 21.4609L22.5758 21.4577Z" fill="#FFCCA9"/>
<path fill-rule="evenodd" clip-rule="evenodd" d="M22.6722 22.2432L30.6274 23.3609C30.7913 26.7045 31.1224 28.3956 31.8167 29.1354C31.8359 29.1546 31.8552 29.177 31.8745 29.1962C26.3879 30.9161 23.704 27.2874 22.8555 24.2769C22.804 23.4826 22.7301 22.7588 22.6722 22.2432Z" fill="#F4A56E"/>
<path fill-rule="evenodd" clip-rule="evenodd" d="M20.1651 15.6543C19.564 15.6543 19.2041 16.9994 19.5448 18.3029C19.8823 19.6064 20.0687 20.7754 20.6697 20.7786C21.2708 20.7786 21.0072 19.9363 21.0104 18.415C21.0137 16.8937 20.7662 15.6575 20.1651 15.6543Z" fill="#FFCCA9"/>
<path fill-rule="evenodd" clip-rule="evenodd" d="M20.3515 16.1378C20.0815 16.1057 19.9079 16.8167 19.8404 17.1786C19.7762 17.5406 19.7826 18.511 19.9915 19.0042C20.1586 19.4045 20.4093 20.4742 20.5283 19.1899C20.5604 18.8601 20.3869 18.7928 20.3194 18.3861C20.2519 17.9793 20.4511 17.7167 20.554 17.6046C20.9429 17.1722 20.6086 16.1666 20.3483 16.1378H20.3515Z" fill="#F4A56E"/>
<path fill-rule="evenodd" clip-rule="evenodd" d="M33.742 15.6709C34.343 15.6709 34.6934 17.0224 34.3495 18.3227C34.0023 19.623 33.8127 20.792 33.2116 20.792C32.6106 20.792 32.8806 19.9465 32.8838 18.4252C32.887 16.9039 33.1409 15.6677 33.742 15.6709Z" fill="#FFCCA9"/>
<path fill-rule="evenodd" clip-rule="evenodd" d="M33.5491 16.1536C33.8191 16.1248 33.9894 16.8358 34.0537 17.1977C34.118 17.5596 34.1051 18.53 33.893 19.0232C33.7226 19.4236 33.4687 20.4933 33.353 19.2058C33.3241 18.8759 33.4944 18.8086 33.5652 18.4019C33.6359 17.9951 33.4366 17.7325 33.3337 17.6172C32.948 17.1817 33.2887 16.1792 33.5459 16.1504L33.5491 16.1536Z" fill="#F4A56E"/>
<path fill-rule="evenodd" clip-rule="evenodd" d="M26.9214 7.78263C33.7741 7.78263 33.1827 11.8437 33.1666 17.4036C33.1505 22.9602 29.3417 26.6626 26.8057 26.4384C24.514 26.3583 20.6891 23.1332 20.7051 17.5733C20.718 13.3233 21.1358 9.59215 24.0993 8.18616C25.0122 7.75379 25.3111 7.78263 26.9246 7.78263H26.9214Z" fill="#FFCCA9"/>
<path fill-rule="evenodd" clip-rule="evenodd" d="M20.6601 15.8308C22.804 14.9597 23.3376 14.5081 25.1407 10.8026C25.0282 11.5008 24.0093 14.5081 22.8972 15.2447C24.5686 14.9885 27.0532 12.0773 27.426 10.5432C27.4421 10.841 26.1564 14.38 25.4654 15.1551C27.426 14.8444 29.8013 12.5961 30.0199 10.8826C31.6366 14.2615 31.5948 14.1078 33.2341 15.9141C33.6327 10.4471 31.9998 6.62305 26.2785 6.62305C20.5155 7.60628 20.5412 9.54071 20.6601 15.834V15.8308Z" fill="#B73823"/>
<path fill-rule="evenodd" clip-rule="evenodd" d="M44.8888 43.4482L43.7606 37.4464C43.4553 35.8514 41.665 34.1508 39.9872 33.4846C37.7597 32.4085 36.1591 32.037 34.1212 30.8584C31.6527 41.011 20.5605 38.0164 20.1202 30.9064C17.192 31.9729 16.7613 32.2996 13.7368 33.4686C13.7368 33.4686 10.4872 34.5191 9.66759 37.7506L8.17297 43.8678C12.8304 48.4797 19.2427 51.3301 26.3268 51.3301C33.4109 51.3301 40.2057 48.3067 44.8921 43.4514L44.8888 43.4482Z" fill="#BA1929"/>
<path fill-rule="evenodd" clip-rule="evenodd" d="M20.7244 16.2144C22.3476 15.8012 24.8064 15.4681 26.2978 16.32C26.4682 16.4161 26.7285 16.4514 26.9889 16.4546C27.2525 16.4546 27.5128 16.4225 27.6831 16.3264C29.7402 15.4617 31.4406 15.8236 33.1505 16.2848C33.1569 16.5538 33.1505 16.2944 33.1505 16.7652C32.8709 16.8645 32.6973 17.0759 32.5623 17.3833C31.6174 20.0672 27.9789 19.6605 27.201 17.252C27.0371 17.236 26.9375 17.236 26.7703 17.252C26.7639 17.5595 26.2303 18.2833 25.4493 18.7605C24.9639 19.0584 24.3757 19.2377 23.7843 19.2089C22.9518 19.1705 22.0294 18.7573 21.4187 17.3129C21.213 16.983 21.0651 16.7844 20.7115 16.7012C20.7115 16.6403 20.7276 16.2144 20.7244 16.2144ZM27.7056 16.7684C27.7506 16.2496 32.1798 15.4905 32.1959 16.7204C32.2377 20.317 27.0242 19.3274 27.7056 16.7684ZM21.7851 16.6563C21.6887 20.4611 26.9953 19.1576 26.2753 16.7588C26.1821 16.1535 21.8172 15.4521 21.7851 16.6563Z" fill="#19AEBB"/>
</svg>
