<svg width="52" height="52" viewBox="0 0 52 52" fill="none" xmlns="http://www.w3.org/2000/svg">
<path fill-rule="evenodd" clip-rule="evenodd" d="M26.1626 0.0302734C40.3855 0.0302734 51.9181 11.5184 51.9181 25.6936C51.9181 39.8687 40.3887 51.3569 26.1626 51.3569C11.9366 51.3569 0.407227 39.8655 0.407227 25.6936C0.407227 11.5216 11.9398 0.0302734 26.1626 0.0302734Z" fill="#19AEBB"/>
<path fill-rule="evenodd" clip-rule="evenodd" d="M47.7396 39.7079C47.235 36.9248 46.1903 35.301 44.0786 34.2249C40.7808 32.5499 35.3295 30.7724 33.0828 29.4561C30.6657 36.7742 20.0524 35.4355 18.8053 29.5553C16.1632 30.5162 9.16271 32.284 6.48206 34.6989C5.78779 35.3234 5.1546 37.181 4.98103 37.9208L4.67889 39.8488C9.29128 46.7827 17.1886 51.3562 26.1626 51.3562C35.1367 51.3562 43.1433 46.7219 47.7396 39.7079Z" fill="#035A6E"/>
<path fill-rule="evenodd" clip-rule="evenodd" d="M31.3375 25.3789L31.045 25.3853C31.045 25.6768 31.0515 25.9682 31.0611 26.2597C31.1672 25.9714 31.2604 25.68 31.3375 25.3789Z" fill="#FFCCA9"/>
<path fill-rule="evenodd" clip-rule="evenodd" d="M20.6246 25.668H20.4671C20.5217 25.7801 20.5764 25.8825 20.631 25.985C20.631 25.8793 20.6278 25.7737 20.6246 25.668Z" fill="#FFCCA9"/>
<path fill-rule="evenodd" clip-rule="evenodd" d="M36.6313 37.6495L34.7767 35.4588L34.4713 35.0969L34.9374 35.0169L37.0459 34.6581L37.107 31.4586C37.107 31.4586 37.123 31.4586 37.1295 31.4651C35.442 30.405 33.176 28.1118 32.5524 27.3271C32.2632 34.293 30.9196 40.8618 29.4025 46.1655C29.4315 46.3128 29.4604 46.4601 29.4861 46.6042C29.1325 48.0551 28.6279 49.6949 28.059 51.2866C28.9975 51.2193 29.9232 51.1008 30.8328 50.9343C31.5014 49.9575 32.1667 48.9166 32.7967 47.8181C34.5935 44.7018 36.0977 41.1981 36.6281 37.6495H36.6313ZM23.482 51.2193C22.6784 51.1361 21.8845 51.0144 21.1034 50.8606C18.6896 46.0342 15.9222 40.1764 15.1154 37.0474L16.9603 34.8695L17.2657 34.5076L16.7996 34.4276L14.6911 34.0688L14.6268 30.8149C14.6268 30.8149 14.6011 30.8245 14.5883 30.8277C14.6172 30.8149 14.6493 30.8053 14.6783 30.7925C16.7257 29.995 18.0178 29.2232 19.3324 27.4296C19.3228 27.4424 19.3131 27.4585 19.3067 27.4681C19.5349 29.9374 20.3545 38.527 22.2188 46.1687C22.1706 46.4185 22.1449 46.601 22.1513 46.6907C22.2734 47.5106 22.762 49.2048 23.4787 51.2129L23.482 51.2193Z" fill="#004C54"/>
<path fill-rule="evenodd" clip-rule="evenodd" d="M24.8223 31.395C25.6033 31.4078 26.3844 31.4239 27.1655 31.4367C28.689 30.2869 30.2479 28.4742 31.0611 26.2611C31.0546 25.9729 31.0482 25.6814 31.045 25.3868C31.0386 24.5124 31.0643 23.6157 31.1446 22.6805C29.9715 24.8615 28.0301 26.2547 25.208 26.197C23.2345 26.1554 21.4956 24.5188 20.3642 22.3506C20.5121 23.494 20.5956 24.5861 20.6245 25.6718C20.6245 25.7775 20.6278 25.8832 20.631 25.9889C21.8781 28.3429 23.0706 29.8962 24.8223 31.3982V31.395Z" fill="#FFCCA9"/>
<path fill-rule="evenodd" clip-rule="evenodd" d="M22.2188 46.1756C22.672 43.7864 25.2337 34.9181 25.2337 34.9181L23.9962 32.91L24.9252 31.6161L27.0176 31.6609L28.0719 32.8812L26.8633 34.9533C27.4804 38.3098 28.7308 42.7231 29.3993 46.166C30.9196 40.8623 32.26 34.2936 32.5492 27.3277C32.5492 27.3213 32.5492 27.3181 32.5492 27.3117C31.7843 26.3252 32.2182 26.9882 31.3375 25.3804C31.3375 25.3804 31.3375 25.3772 31.3375 25.374C31.3375 25.374 31.3375 25.3772 31.3375 25.3804C31.2604 25.6815 31.1639 25.9729 31.0611 26.2612C30.2511 28.4743 28.689 30.287 27.1655 31.4367C26.3844 31.4239 25.6033 31.4079 24.8223 31.3951C23.0706 29.893 21.8781 28.3397 20.631 25.9857C20.5763 25.8833 20.5217 25.7776 20.467 25.6719C20.2581 25.9825 19.5703 27.0907 19.3356 27.4366C19.326 27.4494 19.3164 27.4654 19.3099 27.475C19.5381 29.9443 20.3578 38.534 22.222 46.1756H22.2188Z" fill="white"/>
<path fill-rule="evenodd" clip-rule="evenodd" d="M28.0719 32.8803L27.0176 31.6601L24.9252 31.6152L23.9963 32.9091L25.2337 34.9172C25.2337 34.9172 22.672 43.7887 22.2188 46.1747C22.1706 46.4246 22.1449 46.6071 22.1513 46.6968C22.2734 47.5167 22.762 49.2109 23.4788 51.219C24.3595 51.3087 25.2562 51.3567 26.1594 51.3567C26.799 51.3567 27.429 51.3311 28.0558 51.2863C28.6247 49.6945 29.1293 48.0547 29.4829 46.6039C29.4572 46.4598 29.4283 46.3125 29.3993 46.1651C28.7308 42.7222 27.4805 38.3089 26.8633 34.9524L28.0719 32.8803Z" fill="#BA1929"/>
<path fill-rule="evenodd" clip-rule="evenodd" d="M25.208 26.1968C28.0269 26.2545 29.9683 24.8613 31.1447 22.6802C31.5496 21.9276 31.8646 21.0821 32.0896 20.1661C32.0768 19.6889 32.2375 18.9267 32.305 17.9018C32.3564 17.1203 32.4625 16.4061 32.6296 15.8489C32.6296 15.8457 32.6296 15.8425 32.6296 15.8361C32.6071 15.8649 32.5846 15.8937 32.5621 15.9257C32.44 13.9497 31.765 10.5132 31.4821 9.66764C30.8425 9.1392 30.055 8.05989 23.3373 8.25845C22.5563 8.03427 20.4156 9.65163 20.3899 9.69327C20.1521 10.068 19.8274 10.8174 19.6282 11.9288C18.9725 15.6119 19.3035 14.5774 19.085 15.9257C19.0496 15.9001 18.9596 15.8008 18.8375 15.6695C18.8471 15.756 18.8535 15.8425 18.8632 15.9289C18.9982 16.4606 19.085 17.1139 19.1235 17.8249C19.1557 18.3822 19.2135 18.8594 19.2585 19.2565C19.4867 20.3295 19.866 21.3896 20.3642 22.344C21.4924 24.5154 23.2313 26.152 25.208 26.1904V26.1968Z" fill="#FFCCA9"/>
<path fill-rule="evenodd" clip-rule="evenodd" d="M18.7667 15.5931C18.7924 15.622 18.8149 15.6476 18.8407 15.6732C18.9596 15.8045 19.0496 15.9038 19.0882 15.9294C19.3067 14.5779 18.9757 15.6156 19.6314 11.9324C19.8306 10.8211 20.1553 10.0749 20.3931 9.69696C20.8399 8.99236 31.3021 10.9588 31.3343 10.9844C31.6203 11.83 32.1764 14.2416 32.5653 15.9262C32.591 15.8974 32.6135 15.8686 32.6328 15.8365C32.6328 15.8365 32.6328 15.8333 32.636 15.8301C32.8578 15.0999 33.1824 14.6419 33.6228 14.6708C33.6678 14.6708 33.7096 14.6836 33.7481 14.6964C33.8896 13.2039 33.8381 11.593 33.7674 9.94677C33.8124 5.20035 28.4897 3.33958 24.668 3.57658C17.9568 3.99293 16.7096 8.5664 17.735 14.6772C18.3457 14.6772 18.6092 15.1191 18.7667 15.5899V15.5931Z" fill="#B73823"/>
<path fill-rule="evenodd" clip-rule="evenodd" d="M31.8347 10.292C31.8347 10.292 31.8257 10.307 31.8196 10.313C31.8287 10.31 31.8317 10.301 31.8347 10.292Z" fill="white"/>
<path fill-rule="evenodd" clip-rule="evenodd" d="M31.254 10.9482C31.279 10.9607 31.3008 10.97 31.3258 10.9825C31.3227 10.9731 31.2946 10.9607 31.254 10.9482Z" fill="white"/>
<path fill-rule="evenodd" clip-rule="evenodd" d="M19.3903 13.3997C19.3903 13.3997 19.371 13.3997 19.3646 13.3965C19.3742 13.3997 19.3806 13.4029 19.3903 13.3997Z" fill="white"/>
<path fill-rule="evenodd" clip-rule="evenodd" d="M18.9147 15.9323C18.8857 15.8138 18.8504 15.7017 18.815 15.5928C18.6029 14.9554 18.2975 14.5615 17.8925 14.5839C17.7897 14.5903 17.6965 14.6256 17.6097 14.6832C17.0343 15.0611 16.8158 16.4703 17.2754 17.8058C17.8025 19.3399 18.124 20.7299 18.9018 20.6883C19.4418 20.6594 19.4129 20.1694 19.31 19.2631C19.265 18.8659 19.2071 18.3855 19.175 17.8315C19.1364 17.1205 19.0496 16.4671 18.9147 15.9355V15.9323ZM18.2879 17.8475C18.4036 18.3311 18.6286 18.3983 18.6125 18.7955C18.5482 20.3424 18.1497 19.0773 17.9054 18.6129C17.6033 18.0364 17.5261 16.8771 17.584 16.4351C17.645 15.9963 17.8218 15.1316 18.169 15.1508C18.5032 15.1668 19.0079 16.3454 18.5354 16.8931C18.4132 17.0372 18.1722 17.3639 18.2879 17.8475Z" fill="#FFCCA9"/>
<path fill-rule="evenodd" clip-rule="evenodd" d="M18.1721 15.1497C17.8218 15.1305 17.645 15.9952 17.5871 16.434C17.5293 16.8728 17.6064 18.0322 17.9086 18.6119C18.1528 19.0794 18.5514 20.3413 18.6157 18.7944C18.6317 18.3973 18.4068 18.33 18.291 17.8464C18.1753 17.366 18.4164 17.0361 18.5385 16.892C19.011 16.3443 18.5064 15.1657 18.1721 15.1497Z" fill="#F4A56E"/>
<path fill-rule="evenodd" clip-rule="evenodd" d="M32.6328 15.8325C32.6328 15.8325 32.6328 15.8454 32.6296 15.8486C32.4624 16.4058 32.3564 17.12 32.3049 17.9015C32.2374 18.9264 32.0767 19.6886 32.0896 20.1658C32.0992 20.5373 32.2117 20.7391 32.5492 20.7615C33.3239 20.8127 33.6613 19.426 34.2045 17.8983C34.7188 16.4539 34.4328 14.9102 33.7449 14.6988C33.7031 14.686 33.6613 14.6764 33.6196 14.6732C33.1792 14.6443 32.8546 15.1023 32.6328 15.8325ZM33.5649 18.699C33.3174 19.1634 32.9028 20.422 32.8546 18.8751C32.8417 18.478 33.0667 18.4107 33.1889 17.9303C33.3078 17.4499 33.0731 17.12 32.951 16.9727C32.4849 16.4218 32.9992 15.2464 33.3367 15.2336C33.6871 15.2176 33.8542 16.0824 33.9088 16.5243C33.9635 16.9631 33.8735 18.1225 33.5649 18.6958V18.699Z" fill="#FFCCA9"/>
<path fill-rule="evenodd" clip-rule="evenodd" d="M33.3368 15.2374C33.0025 15.2503 32.4882 16.4256 32.9511 16.9765C33.0732 17.1206 33.3079 17.4537 33.1889 17.9341C33.07 18.4145 32.8418 18.4818 32.8547 18.8789C32.9029 20.4258 33.3143 19.1672 33.565 18.7028C33.8736 18.1295 33.9636 16.9701 33.9089 16.5281C33.8543 16.0894 33.6871 15.2246 33.3368 15.2374Z" fill="#F4A56E"/>
<path fill-rule="evenodd" clip-rule="evenodd" d="M30.1161 28.1896C24.9091 29.0864 21.3252 25.4096 20.3835 22.3799C21.5149 24.5353 23.2441 26.1527 25.208 26.1943C28.0269 26.252 29.9682 24.8588 31.1446 22.6777C31.0643 23.6161 31.0386 24.5097 31.045 25.384C31.045 25.6755 31.0514 25.9669 31.0611 26.2584C30.8104 26.9437 30.4889 27.5875 30.1193 28.1896H30.1161Z" fill="#F4A56E"/>
</svg>
