<svg width="52" height="52" viewBox="0 0 52 52" fill="none" xmlns="http://www.w3.org/2000/svg">
<path fill-rule="evenodd" clip-rule="evenodd" d="M26.0069 0.0302734C40.2298 0.0302734 51.7624 11.5184 51.7624 25.6936C51.7624 39.8687 40.2298 51.3569 26.0069 51.3569C11.7841 51.3569 0.251526 39.8655 0.251526 25.6936C0.251526 11.5216 11.7841 0.0302734 26.0069 0.0302734Z" fill="#FF7032"/>
<path fill-rule="evenodd" clip-rule="evenodd" d="M38.4427 32.7627C38.4677 32.7658 38.4895 32.772 38.5145 32.7783C38.4895 32.7751 38.4677 32.7689 38.4427 32.7627Z" fill="#36393A"/>
<path fill-rule="evenodd" clip-rule="evenodd" d="M15.4515 32.1843C15.4765 32.1749 15.5046 32.1656 15.5296 32.1562C15.5046 32.1656 15.4796 32.1749 15.4515 32.1843Z" fill="#36393A"/>
<path fill-rule="evenodd" clip-rule="evenodd" d="M35.746 31.4048C34.7078 30.9276 32.5414 30.255 32.3132 28.6504C32.1846 27.7345 32.1782 26.8409 32.175 26.6487C32.1686 25.7744 32.1943 24.8776 32.2746 23.9424C31.1014 26.1235 29.1601 27.5167 26.3412 27.4558C24.3677 27.4142 22.6256 25.7776 21.4974 23.6094C21.6453 24.7527 21.7288 25.8449 21.7577 26.9306C21.7577 26.9786 21.7481 27.3309 21.7352 27.7024C21.6806 29.307 19.9064 30.4568 18.3282 31.0012C22.3652 38.0119 31.3875 38.1625 35.746 31.4112V31.4048Z" fill="#FFCCA9"/>
<path fill-rule="evenodd" clip-rule="evenodd" d="M26.354 27.4846C29.1729 27.5423 31.1143 26.1491 32.2907 23.9681C32.6957 23.2154 33.0107 22.3699 33.2356 21.4571C33.2228 20.9799 33.3835 20.2177 33.451 19.1928C33.5024 18.4114 33.6085 17.6972 33.7756 17.1399C33.7756 17.1367 33.7756 17.1335 33.7756 17.1271C33.7531 17.1559 33.7306 17.1847 33.7081 17.2167C33.586 15.2407 32.911 11.8042 32.6282 10.9587C31.9885 10.4302 31.201 9.3509 24.4834 9.54947C23.7023 9.32528 21.5617 10.9426 21.5359 10.9843C21.2981 11.359 20.9735 12.1084 20.7774 13.2198C20.1217 16.9029 20.4528 15.8684 20.2342 17.22C20.1988 17.1943 20.1088 17.095 19.9867 16.9637C19.9963 17.0502 20.0028 17.1367 20.0124 17.2232C20.1474 17.7548 20.2342 18.4114 20.2728 19.1192C20.3049 19.6764 20.3628 20.1536 20.4078 20.5508C20.636 21.6237 21.0152 22.6838 21.5134 23.6382C22.6416 25.8096 24.3805 27.4462 26.3572 27.4846H26.354Z" fill="#FFCCA9"/>
<path fill-rule="evenodd" clip-rule="evenodd" d="M19.9128 16.8795C19.9385 16.9084 19.961 16.934 19.9867 16.9596C20.1056 17.0909 20.1956 17.1902 20.2342 17.2158C20.4528 15.8643 20.1217 16.902 20.7774 13.2156C20.9735 12.1043 21.3013 11.3581 21.5359 10.9802C21.9827 10.2756 32.445 12.242 32.4771 12.2676C32.7632 13.1132 33.3192 15.5248 33.7081 17.2094C33.7339 17.1806 33.7564 17.1486 33.7756 17.1197C33.7756 17.1197 33.7756 17.1165 33.7789 17.1133C34.0006 16.3831 34.3253 15.9251 34.7656 15.954C34.8106 15.954 34.8524 15.9668 34.891 15.9796C35.0324 14.4871 34.981 12.8762 34.9102 11.23C34.9552 6.48356 29.6325 4.62279 25.8108 4.85979C19.0996 5.27614 17.8525 9.8496 18.8778 15.9604C19.4885 15.9604 19.7521 16.4023 19.9096 16.8731L19.9128 16.8795Z" fill="#290C0E"/>
<path fill-rule="evenodd" clip-rule="evenodd" d="M32.9808 11.5811C32.9808 11.5811 32.9717 11.5961 32.9657 11.6021C32.9748 11.5991 32.9778 11.5901 32.9808 11.5811Z" fill="white"/>
<path fill-rule="evenodd" clip-rule="evenodd" d="M32.4032 12.2373C32.4282 12.2498 32.45 12.2591 32.475 12.2715C32.4719 12.2622 32.4438 12.2498 32.4032 12.2373Z" fill="white"/>
<path fill-rule="evenodd" clip-rule="evenodd" d="M20.5362 14.6858C20.5362 14.6858 20.517 14.6858 20.5106 14.6826C20.5202 14.6858 20.5266 14.689 20.5362 14.6858Z" fill="white"/>
<path fill-rule="evenodd" clip-rule="evenodd" d="M20.0639 17.2191C20.0349 17.1006 19.9996 16.9885 19.9642 16.8828C19.7521 16.2455 19.4468 15.8515 19.0418 15.874C18.9389 15.8804 18.8457 15.9156 18.7589 15.9732C18.1836 16.3512 17.965 17.7603 18.4246 19.0959C18.9518 20.63 19.2732 22.0199 20.051 21.9783C20.591 21.9495 20.5621 21.4595 20.4592 20.5531C20.4142 20.156 20.3564 19.6756 20.3242 19.1215C20.2857 18.4105 20.1989 17.7571 20.0639 17.2255V17.2191ZM19.4371 19.1343C19.5528 19.6147 19.7778 19.6852 19.7617 20.0823C19.6975 21.6292 19.2989 20.3641 19.0546 19.8998C18.7525 19.3233 18.6753 18.1639 18.7332 17.7219C18.7911 17.2831 18.9678 16.4184 19.3182 16.4376C19.6525 16.4536 20.1571 17.6322 19.6846 18.1799C19.5625 18.324 19.3214 18.6539 19.4371 19.1343Z" fill="#FFCCA9"/>
<path fill-rule="evenodd" clip-rule="evenodd" d="M19.3181 16.4388C18.9678 16.4196 18.791 17.2843 18.7331 17.7231C18.6721 18.1618 18.7524 19.3212 19.0546 19.9009C19.2988 20.3685 19.6974 21.6304 19.7617 20.0835C19.7778 19.6863 19.5528 19.6191 19.4371 19.1355C19.3213 18.6519 19.5624 18.3252 19.6845 18.1811C20.157 17.6334 19.6524 16.4548 19.3181 16.4388Z" fill="#F4A56E"/>
<path fill-rule="evenodd" clip-rule="evenodd" d="M33.7821 17.1197C33.7821 17.1197 33.7821 17.1325 33.7757 17.1357C33.6086 17.6929 33.5025 18.4071 33.4511 19.1886C33.3836 20.2135 33.2229 20.9757 33.2357 21.4529C33.2454 21.8244 33.3579 22.0262 33.6953 22.0486C34.4732 22.0999 34.8075 20.7131 35.3507 19.1854C35.8649 17.741 35.5789 16.1973 34.891 15.9859C34.8492 15.9731 34.8075 15.9635 34.7657 15.9603C34.3253 15.9315 34.0007 16.3862 33.7789 17.1197H33.7821ZM34.7142 19.9861C34.4668 20.4505 34.0521 21.7091 34.0039 20.1622C33.9911 19.7651 34.216 19.6978 34.3382 19.2174C34.4571 18.737 34.2225 18.4039 34.1003 18.2598C33.6343 17.709 34.1486 16.5336 34.486 16.5208C34.8364 16.5047 35.0035 17.3695 35.0582 17.8114C35.1128 18.2502 35.0228 19.4096 34.7142 19.9829V19.9861Z" fill="#FFCCA9"/>
<path fill-rule="evenodd" clip-rule="evenodd" d="M34.4828 16.5246C34.1485 16.5374 33.6342 17.7128 34.0971 18.2636C34.2192 18.4077 34.4539 18.7408 34.3349 19.2212C34.216 19.7016 33.9878 19.7689 34.0007 20.166C34.0489 21.7129 34.4603 20.4543 34.711 19.9899C35.0196 19.4166 35.1096 18.2572 35.0549 17.8152C35.0003 17.3765 34.8331 16.5117 34.4828 16.5246Z" fill="#F4A56E"/>
<path fill-rule="evenodd" clip-rule="evenodd" d="M32.8114 29.7006C27.7233 30.3667 22.4391 26.6004 21.5167 23.6379V23.6443H21.5199C21.5295 23.6635 21.5392 23.6795 21.5488 23.6987V23.7051H21.552V23.7083V23.7115C21.5584 23.7275 21.5681 23.7403 21.5745 23.7564V23.7628L21.5777 23.7724L21.5842 23.7852L21.6067 23.8236V23.83H21.6099V23.8332V23.8364L21.6388 23.8877V23.8941V23.8973L21.6484 23.9133V23.9165L21.6709 23.9549L21.6774 23.9677C21.687 23.9837 21.6967 23.9998 21.7063 24.019L21.7127 24.0286C21.7224 24.0446 21.732 24.0574 21.7384 24.0734V24.0798H21.7417V24.083L21.7513 24.0958V24.099L21.777 24.1407L21.7867 24.1535V24.1567V24.1599C21.7931 24.1727 21.8027 24.1855 21.8092 24.1951L21.8188 24.2111L21.8413 24.2464L21.8509 24.2624L21.8734 24.2976L21.8799 24.3072V24.3104L21.9056 24.3456L21.912 24.3553L21.9441 24.4001L21.9506 24.4097V24.4161L21.957 24.4257L21.9795 24.4577L21.9859 24.4706L21.9988 24.4866V24.4898L22.0213 24.5218L22.0309 24.5378V24.541V24.5442C22.0309 24.5442 22.0438 24.5634 22.0534 24.573L22.0663 24.5891C22.0663 24.5891 22.0856 24.6147 22.0984 24.6275L22.1049 24.6371V24.6403L22.1177 24.6563C22.1241 24.6659 22.1338 24.6755 22.1402 24.6851L22.1499 24.6979V24.7011L22.1691 24.7268L22.182 24.7428L22.2045 24.7716L22.227 24.7972L22.2366 24.81L22.2495 24.8229L22.272 24.8485L22.2881 24.8645C22.2881 24.8645 22.3041 24.8837 22.3138 24.8933L22.3299 24.9093C22.3299 24.9093 22.3459 24.9253 22.3524 24.9349L22.3684 24.951C22.3684 24.951 22.3813 24.967 22.3909 24.9734L22.4102 24.9926C22.4166 24.999 22.4231 25.0054 22.4295 25.0118L22.4424 25.0278H22.4456V25.031V25.0342H22.4488V25.0374L22.4713 25.0599L22.4841 25.0759L22.5099 25.1015L22.5259 25.1175L22.5484 25.1399L22.5741 25.1623L22.5902 25.1784L22.5966 25.1848L22.6063 25.1912L22.6223 25.2072L22.6416 25.2232C22.6481 25.2296 22.6577 25.236 22.6641 25.2456L22.6802 25.2616L22.7027 25.2808L22.7188 25.2936L22.7413 25.3129V25.3161L22.7573 25.3289L22.7831 25.3513H22.7863V25.3545L22.7927 25.3609V25.3641L22.8056 25.3769L22.8248 25.3897V25.3929L22.8409 25.4057L22.8538 25.4154L22.8698 25.4282L22.8923 25.4442L22.902 25.4506L22.9084 25.457L22.9213 25.4666L22.9341 25.4762V25.4794L22.9406 25.4858L22.947 25.489L22.9631 25.5018L22.9856 25.5178C22.9856 25.5178 23.0048 25.5339 23.0145 25.5403L23.0241 25.5467L23.0338 25.5531H23.037L23.0434 25.5563H23.0466L23.0595 25.5627L23.0691 25.5691L23.1013 25.5915L23.1077 25.5979C23.1141 25.6011 23.1205 25.6043 23.127 25.6075L23.1495 25.6235L23.1591 25.6299L23.1848 25.6459L23.1913 25.6524L23.2009 25.6588L23.2234 25.6716H23.2266L23.233 25.6748L23.2555 25.6876C23.2588 25.6876 23.2652 25.6908 23.2684 25.694L23.2845 25.7036H23.2877L23.3134 25.7164L23.323 25.7228L23.3391 25.7324L23.3745 25.7484H23.3809V25.7516L23.4002 25.7612L23.4195 25.7709H23.4291V25.7741L23.4516 25.7837L23.4677 25.7901H23.4741C23.4838 25.7933 23.4902 25.7965 23.4998 25.7997H23.5063L23.5352 25.8125H23.5384L23.5577 25.8189C23.5705 25.8221 23.5834 25.8285 23.593 25.8317H23.5963C23.5963 25.8317 23.6188 25.8381 23.6284 25.8413L23.6509 25.8477C23.6509 25.8477 23.6766 25.8573 23.6895 25.8605H23.6991H23.7023C23.712 25.8605 23.7216 25.8669 23.7312 25.8701L23.7537 25.8765L23.773 25.8829C23.7827 25.8829 23.7955 25.8894 23.8052 25.8926C23.8052 25.8926 23.8309 25.899 23.8437 25.9022L23.863 25.9054C23.8791 25.9054 23.892 25.9118 23.908 25.915H23.9273V25.9182C23.9434 25.9214 23.9627 25.9246 23.9787 25.9278H23.9916C23.9916 25.9278 24.0205 25.931 24.0334 25.9342H24.0559V25.9374C24.0848 25.9406 24.1137 25.947 24.1459 25.9502H24.1491C24.1684 25.9502 24.1877 25.9534 24.2069 25.9566H24.2166C24.2455 25.9566 24.2777 25.963 24.3066 25.963C24.3355 25.963 24.3677 25.9662 24.3966 25.9694C24.4255 25.9694 24.4577 25.9694 24.4898 25.9694C27.3087 26.0271 29.25 24.6339 30.4232 22.4561C30.3429 23.3944 30.3172 24.288 30.3236 25.1623C30.3236 25.3545 30.3332 26.2513 30.4618 27.164C30.5196 27.5708 30.6996 27.9167 30.9568 28.2177L32.8114 29.7006Z" fill="#F4A56E"/>
<path fill-rule="evenodd" clip-rule="evenodd" d="M47.706 39.5231C47.3268 37.7295 46.6486 36.2115 44.9033 35.0489C41.8465 33.0088 35.8746 31.5259 33.6407 30.2064C31.2333 37.5246 21.0924 35.9681 19.8518 30.0879C17.2225 31.0455 10.1899 32.6917 7.52207 35.1097C6.83101 35.7343 6.20103 37.5918 6.02746 38.3317L5.5614 41.2974C10.2702 47.4113 17.6757 51.3539 26.0037 51.3539C35.116 51.3539 43.1258 46.6363 47.7028 39.5199L47.706 39.5231Z" fill="#4ED6DE"/>
</svg>
