<svg width="53" height="52" viewBox="0 0 53 52" fill="none" xmlns="http://www.w3.org/2000/svg">
<path fill-rule="evenodd" clip-rule="evenodd" d="M26.7391 0.0302734C40.9619 0.0302734 52.4945 11.5216 52.4945 25.6936C52.4945 39.8655 40.9619 51.3569 26.7391 51.3569C12.5162 51.3569 0.983643 39.8687 0.983643 25.6936C0.983643 11.5184 12.5162 0.0302734 26.7391 0.0302734Z" fill="#19AEBB"/>
<path fill-rule="evenodd" clip-rule="evenodd" d="M39.1748 32.7627C39.1998 32.7658 39.2216 32.772 39.2466 32.7783C39.2216 32.7751 39.1998 32.7689 39.1748 32.7627Z" fill="#36393A"/>
<path fill-rule="evenodd" clip-rule="evenodd" d="M16.1836 32.1843C16.2086 32.1749 16.2367 32.1656 16.2617 32.1562C16.2367 32.1656 16.2117 32.1749 16.1836 32.1843Z" fill="#36393A"/>
<path fill-rule="evenodd" clip-rule="evenodd" d="M36.4781 31.4045C35.4399 30.9273 33.2736 30.2547 33.0454 28.6502C32.9168 27.7342 32.9072 26.8406 32.9072 26.6485C32.9007 25.7741 32.9264 24.8774 33.0068 23.9422C31.8336 26.1232 29.8922 27.5164 27.0734 27.4588C25.0999 27.4171 23.3578 25.7805 22.2296 23.6123C22.3774 24.7557 22.461 25.8478 22.4899 26.9335C22.4899 26.9816 22.4803 27.3339 22.4674 27.7054C22.4128 29.3067 20.6353 30.4597 19.0604 31.0042C23.0974 38.0149 32.1197 38.1654 36.4781 31.4141V31.4045Z" fill="#FFCCA9"/>
<path fill-rule="evenodd" clip-rule="evenodd" d="M27.0862 27.4846C29.9051 27.5423 31.8464 26.1491 33.0196 23.9713C33.4246 23.2186 33.7396 22.3731 33.9646 21.4571C33.9517 20.9799 34.1124 20.2177 34.1799 19.1928C34.2314 18.4114 34.3374 17.6972 34.5046 17.1399C34.5046 17.1367 34.5046 17.1335 34.5046 17.1271C34.4821 17.1559 34.4596 17.1847 34.4371 17.2167C34.3149 15.2407 33.64 11.8042 33.3571 10.9587C32.7175 10.4302 31.93 9.3509 25.2123 9.54947C24.4313 9.32528 22.2906 10.9426 22.2649 10.9843C22.027 11.359 21.7024 12.1084 21.5063 13.2198C20.8506 16.9029 21.1817 15.8684 20.9631 17.22C20.9278 17.1943 20.8378 17.095 20.7156 16.9637C20.7253 17.0502 20.7317 17.1367 20.7413 17.2232C20.8763 17.7548 20.9631 18.4082 21.0017 19.1192C21.0338 19.6764 21.0917 20.1536 21.1367 20.5508C21.3649 21.6237 21.7442 22.6838 22.2424 23.6382C23.3706 25.8096 25.1095 27.4462 27.0862 27.4846Z" fill="#FFCCA9"/>
<path fill-rule="evenodd" clip-rule="evenodd" d="M20.6449 16.8795C20.6706 16.9084 20.6931 16.934 20.7188 16.9596C20.8377 17.0909 20.931 17.1902 20.9663 17.2158C21.1849 15.8643 20.8538 16.902 21.5095 13.2156C21.7056 12.1043 22.0302 11.3581 22.2681 10.9802C22.7148 10.2756 33.1771 12.242 33.2092 12.2676C33.4953 13.1132 34.0513 15.5248 34.4403 17.2094C34.466 17.1806 34.4885 17.1486 34.5077 17.1197C34.5077 17.1197 34.5077 17.1165 34.511 17.1133C34.7327 16.3831 35.0574 15.9251 35.4977 15.954C35.5427 15.954 35.5845 15.9668 35.6231 15.9796C35.7645 14.4871 35.7131 12.8762 35.6424 11.23C35.6874 6.48356 30.3646 4.62279 26.543 4.85979C19.8317 5.27934 18.5846 9.8496 19.6099 15.9604C20.2206 15.9604 20.4842 16.4023 20.6417 16.8731L20.6449 16.8795Z" fill="#B73823"/>
<path fill-rule="evenodd" clip-rule="evenodd" d="M33.7129 11.5811C33.7129 11.5811 33.7039 11.5961 33.6978 11.6021C33.7069 11.5961 33.7099 11.5901 33.7129 11.5811Z" fill="white"/>
<path fill-rule="evenodd" clip-rule="evenodd" d="M33.1354 12.2373C33.1604 12.2498 33.1822 12.2591 33.2072 12.2715C33.2041 12.2622 33.176 12.2498 33.1354 12.2373Z" fill="white"/>
<path fill-rule="evenodd" clip-rule="evenodd" d="M21.2684 14.6858C21.2684 14.6858 21.2492 14.6858 21.2428 14.6826C21.2524 14.689 21.2588 14.689 21.2684 14.6858Z" fill="white"/>
<path fill-rule="evenodd" clip-rule="evenodd" d="M20.796 17.2194C20.767 17.1009 20.7317 16.9888 20.6963 16.8799C20.4842 16.2425 20.1788 15.8486 19.7738 15.871C19.671 15.8774 19.5778 15.9127 19.491 15.9671C18.9189 16.345 18.6971 17.7542 19.1567 19.0897C19.6838 20.6238 20.0085 22.0138 20.7831 21.969C21.3231 21.9402 21.2942 21.4501 21.1913 20.5438C21.1463 20.1466 21.0884 19.6662 21.0563 19.1122C21.0177 18.4012 20.931 17.7478 20.796 17.2162V17.2194ZM20.1692 19.1346C20.2849 19.615 20.5099 19.6855 20.4938 20.0826C20.4295 21.6295 20.031 20.3644 19.7867 19.9C19.4846 19.3235 19.4074 18.1642 19.4653 17.7254C19.5231 17.2866 19.7031 16.4219 20.0503 16.4411C20.3845 16.4571 20.8892 17.6357 20.4167 18.1834C20.2945 18.3275 20.0535 18.6542 20.1692 19.1378V19.1346Z" fill="#FFCCA9"/>
<path fill-rule="evenodd" clip-rule="evenodd" d="M20.0503 16.4387C19.6999 16.4195 19.5232 17.2843 19.4653 17.723C19.4074 18.1618 19.4846 19.3212 19.7867 19.8977C20.031 20.3653 20.4296 21.6271 20.4939 20.0802C20.5099 19.6831 20.2849 19.6126 20.1692 19.1322C20.0535 18.6518 20.2946 18.3219 20.4167 18.1778C20.8892 17.6302 20.3846 16.4516 20.0503 16.4355V16.4387Z" fill="#F4A56E"/>
<path fill-rule="evenodd" clip-rule="evenodd" d="M34.5142 17.1197C34.5142 17.1197 34.5142 17.1325 34.511 17.1357C34.3438 17.6929 34.2378 18.4071 34.1864 19.1886C34.1189 20.2135 33.9581 20.9757 33.971 21.4529C33.9806 21.8244 34.0931 22.0262 34.4306 22.0486C35.2053 22.0999 35.5428 20.7131 36.086 19.1854C36.6002 17.741 36.3142 16.1973 35.6263 15.9859C35.5845 15.9731 35.5428 15.9635 35.501 15.9603C35.0606 15.9314 34.736 16.3894 34.5142 17.1197ZM35.4463 19.9861C35.1988 20.4505 34.7842 21.7091 34.736 20.1622C34.7231 19.7651 34.9513 19.6978 35.0703 19.2174C35.1892 18.737 34.9545 18.4039 34.8324 18.2598C34.3663 17.709 34.8806 16.5336 35.2181 16.5207C35.5685 16.5079 35.7356 17.3695 35.7903 17.8114C35.8449 18.2502 35.7549 19.4096 35.4463 19.9829V19.9861Z" fill="#FFCCA9"/>
<path fill-rule="evenodd" clip-rule="evenodd" d="M35.2181 16.5244C34.8839 16.5372 34.3696 17.7126 34.8324 18.2635C34.9546 18.4076 35.1892 18.7407 35.0703 19.2211C34.9514 19.7015 34.7232 19.7688 34.736 20.1659C34.7842 21.7128 35.1989 20.4541 35.4464 19.9897C35.7549 19.4165 35.8449 18.2571 35.7903 17.8183C35.7356 17.3795 35.5685 16.5148 35.2181 16.5276V16.5244Z" fill="#F4A56E"/>
<path fill-rule="evenodd" clip-rule="evenodd" d="M33.5435 29.7004C28.4555 30.3666 23.1713 26.6002 22.2488 23.6377V23.6441H22.2521C22.2617 23.6633 22.2713 23.6793 22.281 23.6985V23.705H22.2842V23.7082V23.7114C22.2938 23.7274 22.3003 23.7402 22.3067 23.7562V23.7626L22.3099 23.7722L22.3163 23.785L22.3388 23.8234V23.8299H22.3421V23.8331V23.8363L22.371 23.8875V23.8939V23.8971L22.3806 23.9131V23.9163L22.4031 23.9548L22.4096 23.9676C22.4192 23.9836 22.4288 23.9996 22.4385 24.0188L22.4449 24.0284C22.4546 24.0444 22.4642 24.0572 22.4706 24.0733V24.0797H22.4738V24.0829L22.4835 24.0957V24.0989L22.5092 24.1405L22.5188 24.1533V24.1565V24.1597C22.5253 24.1725 22.5349 24.1854 22.5413 24.195L22.551 24.211L22.5735 24.2462L22.5831 24.2622L22.6056 24.2975L22.612 24.3071V24.3103L22.6378 24.3455L22.6442 24.3551L22.6763 24.3999L22.6828 24.4096V24.416L22.6892 24.4256L22.7117 24.4576L22.7181 24.4704L22.731 24.4864V24.4896L22.7535 24.5216L22.7631 24.5377V24.5409V24.5441C22.7631 24.5441 22.776 24.5633 22.7856 24.5729L22.7985 24.5889C22.7985 24.5889 22.8178 24.6145 22.8274 24.6273L22.8338 24.6369L22.8467 24.6529C22.8531 24.6626 22.8628 24.6722 22.8692 24.6818L22.8788 24.6946V24.6978L22.8981 24.7234L22.911 24.7394L22.9335 24.7683L22.956 24.7971L22.9656 24.8099L22.9785 24.8227L23.001 24.8483L23.017 24.8643C23.017 24.8643 23.0331 24.8835 23.0427 24.8932L23.0588 24.9092C23.0588 24.9092 23.0749 24.9252 23.0813 24.9348L23.0974 24.9508C23.0974 24.9508 23.1103 24.9668 23.1199 24.9732L23.1392 24.9924C23.1456 24.9988 23.152 25.0052 23.1585 25.0117L23.1713 25.0277H23.1745V25.0309V25.0341H23.1778V25.0373L23.2003 25.0597L23.2131 25.0757L23.2388 25.1013L23.2549 25.1173L23.2742 25.1398L23.2999 25.1622L23.316 25.1782L23.3224 25.1846L23.3288 25.191L23.3449 25.207L23.3642 25.223C23.3738 25.2294 23.3802 25.2358 23.3867 25.2455L23.4027 25.2615L23.4252 25.2807V25.2839L23.4413 25.2967L23.4638 25.3159L23.467 25.3191L23.4831 25.3319L23.5088 25.3543H23.5152V25.3575L23.5217 25.364L23.5345 25.3768L23.5538 25.3896L23.5699 25.4024L23.5827 25.412L23.5988 25.4248L23.6213 25.4408L23.631 25.4472L23.6374 25.4536L23.6502 25.4632L23.6631 25.4728H23.6663L23.6727 25.4793L23.6792 25.4824L23.6984 25.4953L23.721 25.5113C23.721 25.5113 23.7402 25.5273 23.7499 25.5337L23.7595 25.5401L23.7692 25.5465H23.7724H23.7788V25.5497H23.782L23.7949 25.5593L23.8045 25.5657L23.8367 25.5881L23.8431 25.5945C23.8495 25.5977 23.8559 25.601 23.8624 25.6074L23.8849 25.6234L23.8945 25.6298L23.9202 25.6458L23.9267 25.649L23.9363 25.6554L23.9588 25.6682H23.962H23.9684L23.9909 25.681C23.9942 25.681 24.0006 25.6842 24.0038 25.6874L24.0199 25.697H24.0231L24.0488 25.7098L24.0584 25.7163L24.0745 25.7259L24.1099 25.7419H24.1163L24.1356 25.7515L24.1517 25.7611H24.1613V25.7643L24.1838 25.7739L24.1999 25.7835H24.2063C24.2159 25.7867 24.2224 25.7899 24.232 25.7931H24.2384L24.2674 25.8059H24.2706L24.2899 25.8123C24.2899 25.8123 24.3156 25.8219 24.3252 25.8251H24.3284H24.3316C24.3413 25.8283 24.3541 25.8315 24.3638 25.8347L24.3831 25.8412C24.3831 25.8412 24.4088 25.8508 24.4216 25.854H24.4313H24.4345C24.4345 25.854 24.4538 25.8604 24.4634 25.8636L24.4859 25.87L24.5052 25.8764C24.5149 25.8764 24.5277 25.8828 24.5374 25.886C24.5502 25.886 24.5631 25.8924 24.5759 25.8956L24.5952 25.8988C24.5952 25.8988 24.6241 25.9052 24.6402 25.9084H24.6595V25.9116C24.6788 25.9148 24.6949 25.918 24.7141 25.9212H24.727C24.727 25.9212 24.7559 25.9276 24.7688 25.9276L24.7881 25.9308C24.817 25.934 24.8459 25.9404 24.8781 25.9436C24.8974 25.9436 24.9166 25.9468 24.9359 25.9501H24.9456C24.9745 25.9501 25.0066 25.9565 25.0356 25.9565C25.0645 25.9565 25.0966 25.9597 25.1255 25.9629C25.1577 25.9629 25.1866 25.9629 25.2188 25.9629C28.0376 26.0205 29.979 24.6273 31.1522 22.4463C31.0718 23.3847 31.0461 24.2782 31.0525 25.1526C31.0525 25.3447 31.0622 26.2415 31.1908 27.1543C31.2486 27.561 31.4286 27.9069 31.6857 28.208L33.5435 29.7004Z" fill="#F4A56E"/>
<path fill-rule="evenodd" clip-rule="evenodd" d="M48.4382 39.5231C48.0589 37.7295 47.3807 36.2115 45.6354 35.0489C42.5787 33.0088 36.6067 31.5259 34.3728 30.2064C31.9654 37.5246 21.8246 35.9681 20.5839 30.0879C17.9546 31.0455 10.922 32.6917 8.25418 35.1097C7.56313 35.7343 6.93314 37.5918 6.75957 38.3317L6.29352 41.3006C11.0023 47.4145 18.4078 51.3539 26.7358 51.3539C35.8481 51.3539 43.8579 46.6363 48.4349 39.5199L48.4382 39.5231Z" fill="#035A6E"/>
<path fill-rule="evenodd" clip-rule="evenodd" d="M20.7831 16.0819C21.0756 16.005 21.201 15.973 21.5449 15.8705C23.4284 15.3132 25.7973 15.5502 26.8708 16.1556C27.0573 16.2613 27.3433 16.2965 27.6326 16.2997C27.9219 16.2997 28.2079 16.2613 28.3944 16.1556C29.4679 15.5502 31.8368 15.3132 33.7203 15.8705C33.9614 15.941 34.1896 16.0018 34.4017 16.0595C34.4949 16.2997 34.5367 16.7032 34.3471 17.2573L33.7492 17.2765C33.7492 17.2765 33.6014 17.7665 33.0228 18.532C32.4442 19.2974 30.024 19.2174 29.275 19.0444C28.5261 18.8715 27.8672 17.1772 27.8672 17.1772C27.6872 17.1612 27.5747 17.1612 27.3947 17.1772C27.3947 17.1772 26.7326 18.8715 25.9869 19.0444C25.238 19.2174 22.8177 19.2942 22.2391 18.532C21.6606 17.7665 21.5095 17.2829 21.5095 17.2829C21.2813 16.921 21.1206 16.8217 20.706 16.8698C20.6706 16.1492 20.6995 16.636 20.7767 16.0787L20.7831 16.0819ZM28.4201 16.6424C28.4651 16.0723 33.3314 15.2076 33.3571 16.5591C33.3732 17.4302 33.2542 18.2758 32.5664 18.6633C32.1518 18.8971 31.4639 18.9643 30.4611 18.99C27.7901 19.0636 28.4233 16.6392 28.4233 16.6392L28.4201 16.6424ZM26.8483 16.6424C26.7423 15.9794 21.937 15.2396 21.9145 16.5591C21.8985 17.4302 22.0174 18.2758 22.7052 18.6633C23.1198 18.8971 23.8077 18.9643 24.8105 18.99C27.4815 19.0636 26.8548 16.652 26.8483 16.6392V16.6424Z" fill="#290C0E"/>
<path fill-rule="evenodd" clip-rule="evenodd" d="M21.2106 21.1484C21.2428 21.2189 22.7438 24.3351 23.5152 23.2302C24.2866 22.1253 26.1573 21.1645 26.5687 21.3406C27.4526 21.5872 28.0344 21.4943 28.8701 21.3406C29.2783 21.1645 31.1522 22.1253 31.9236 23.2302C32.695 24.3351 34.0289 21.4079 34.061 21.3342C33.8425 22.8074 33.9228 23.7106 33.0357 25.2255C31.48 26.8653 30.0047 27.935 28.3333 27.9798C28.1244 27.9862 27.9219 27.9798 27.7226 27.9702C27.5233 27.9798 27.3208 27.983 27.1119 27.9798C25.4598 27.9446 23.4927 26.5866 22.432 25.1422C21.5513 23.0124 21.5224 23.0348 21.2138 21.1484H21.2106ZM24.7816 23.5473L25.3634 24.1654C26.1412 24.9917 25.9741 25.5522 27.5265 25.6611C27.594 25.6611 27.6583 25.6611 27.7194 25.6611C27.7805 25.6611 27.8448 25.6611 27.9123 25.6611C29.4679 25.5522 29.2976 24.9917 30.0754 24.1654L30.6572 23.5473C28.7704 22.2662 26.6973 22.2662 24.7816 23.5473Z" fill="#B73823"/>
</svg>
