<svg width="61" height="61" viewBox="0 0 61 61" fill="none" xmlns="http://www.w3.org/2000/svg">
<mask id="mask0_1330_18051" style="mask-type:luminance" maskUnits="userSpaceOnUse" x="5" y="4" width="52" height="52">
<path d="M55.5074 35.0331C58.2806 21.2416 49.3391 7.81525 35.5362 5.04442C21.7332 2.27359 8.29568 11.2076 5.52255 24.999C2.74941 38.7905 11.6908 52.2169 25.4938 54.9877C39.2967 57.7586 52.7343 48.8246 55.5074 35.0331Z" fill="white"/>
</mask>
<g mask="url(#mask0_1330_18051)">
<path d="M56.0137 30.0644C56.0667 15.9749 44.697 4.51374 30.6188 4.46529C16.5406 4.41684 5.08497 15.7994 5.03196 29.889C4.97895 43.9785 16.3486 55.4397 30.4269 55.4881C44.5051 55.5366 55.9607 44.154 56.0137 30.0644Z" fill="#1BAC91"/>
<path d="M47.9786 50.3827C47.5527 47.5684 47.1954 46.5068 43.2842 46.0537C41.8049 45.8844 37.7791 45.468 36.2861 44.6122C34.793 43.7565 35.0266 39.4824 35.0266 39.4824H26.8514C26.8514 39.4824 27.0896 43.7565 25.5919 44.6122C24.0943 45.468 20.0686 45.8798 18.5893 46.0537C14.6826 46.5068 14.3253 47.5684 13.8994 50.3827C13.5559 52.6388 13.5422 55.6544 13.5422 55.6544H48.3313C48.3313 55.6544 48.3175 52.6388 47.974 50.3827H47.9786Z" fill="#F4C297"/>
<path d="M25.9537 44.3076C28.6604 44.3717 33.222 43.7264 35.0723 41.4658V41.4567C35.0357 41.0586 35.0219 40.6879 35.0173 40.3721C35.0173 40.2669 35.0173 40.1708 35.0173 40.0838V40.0701C35.0173 39.9832 35.0173 39.9054 35.0173 39.8367V39.8276C35.0173 39.7589 35.0173 39.6995 35.0219 39.6491C35.0219 39.5942 35.0219 39.5576 35.0219 39.5301C35.0219 39.5301 35.0219 39.5301 35.0219 39.521C35.0219 39.4981 35.0219 39.4844 35.0219 39.4844H26.8468C26.8468 39.4844 27.0437 43.0309 25.9445 44.3076H25.9537Z" fill="#EDB380"/>
<path d="M40.1469 28.8075H39.9637C40.0415 28.1851 40.1194 27.5673 40.1973 26.9862C40.5911 23.9705 41.4751 15.1523 30.9412 15.1523C20.4074 15.1523 21.2913 23.9705 21.6852 26.9862C21.7585 27.5673 21.8409 28.1851 21.9142 28.8075H21.731C20.128 27.6223 19.9906 30.7203 20.6593 31.7774C21.2135 32.656 21.2272 32.7475 21.557 33.7131C21.8043 34.4224 22.2119 34.5185 22.5554 34.4407C22.5966 34.8617 22.6333 35.2278 22.6607 35.5206C22.8073 37.1452 26.7231 40.4033 27.6071 41.4238C28.436 42.3802 29.8237 42.005 30.268 41.9867C30.7168 41.9684 30.9275 41.9546 30.9275 41.9546C30.9275 41.9546 31.1427 41.9638 31.5916 41.9867C32.0358 42.0096 33.4235 42.3802 34.2525 41.4238C35.141 40.4033 39.0523 37.1452 39.1988 35.5206C39.2263 35.2278 39.2629 34.8617 39.3042 34.4407C39.6477 34.5185 40.0553 34.4224 40.3026 33.7131C40.6369 32.7475 40.6461 32.656 41.2003 31.7774C41.8689 30.7203 41.7315 27.6268 40.1286 28.8075H40.1469Z" fill="#F4C297"/>
<path d="M21.6852 26.9862C21.7585 27.5673 21.8409 28.1851 21.9142 28.8075H21.731C20.128 27.6223 19.9906 30.7203 20.6593 31.7774C21.2135 32.656 21.2272 32.7475 21.557 33.7131C21.8043 34.4224 22.2119 34.5185 22.5554 34.4407C22.5966 34.8617 22.6333 35.2278 22.6607 35.5206C22.8073 37.1452 26.7231 40.4033 27.6071 41.4238C28.436 42.3802 29.8237 42.005 30.268 41.9867C30.7168 41.9684 30.9275 41.9546 30.9275 41.9546V15.1523C20.3937 15.1523 21.2776 23.9705 21.6715 26.9862H21.6852Z" fill="#EDB88A"/>
<path d="M40.6187 23.9732C40.4401 22.0604 39.8035 19.9371 39.5836 19.3422C39.2401 18.4132 39.95 17.6582 39.95 17.6582C39.95 17.6582 39.1394 17.2738 37.8204 16.2487C36.5013 15.2237 34.2297 15.3701 34.2297 15.3701C34.9625 15.3701 35.5487 14.5647 35.5487 14.5647C34.9625 14.8576 31.2986 13.9653 29.32 14.0385C27.3415 14.1117 25.8027 16.0886 25.8027 16.0886C25.8027 16.0886 23.8653 15.8003 22.5417 17.9694C20.3846 21.5113 21.5891 28.5676 21.5891 28.5676C22.7478 29.643 22.7982 31.5696 22.7982 31.5696C22.7982 31.5696 22.7204 30.0274 23.2242 28.1558C23.8699 25.7854 26.4988 24.4903 26.4988 24.4903C26.279 25.1493 24.3966 26.5267 24.3966 26.5267C25.1706 26.4718 27.9964 25.0349 28.9261 24.5407C29.233 24.3759 29.4254 24.2661 29.4254 24.2661C29.3658 24.3713 29.2651 24.4766 29.146 24.5818C28.5002 25.1401 27.5842 25.6572 27.5842 25.6572C28.1247 25.6252 29.2055 25.195 30.2498 24.7145C31.6191 24.0922 32.5077 23.3875 32.5077 23.3875C32.1229 24.0464 31.0833 24.6184 30.5841 24.8701C30.6436 24.8793 30.6986 24.893 30.7581 24.9067C32.9244 24.3851 34.3396 23.0992 34.3396 23.0992C34.1931 23.8314 33.5565 24.321 33.5565 24.321C34.0511 24.138 35.0587 23.7902 35.8052 23.0443C36.6067 22.2434 36.9868 22.3716 37.3899 22.6095C38.26 23.1221 38.3837 24.6459 38.5715 25.7854C39.0569 28.7644 38.8096 31.5696 38.8096 31.5696C39.7439 28.6134 40.2752 28.6912 40.2752 28.6912C40.4492 27.6387 40.8339 26.2475 40.6187 23.9686V23.9732Z" fill="#1C140A"/>
<path d="M47.9786 50.3794C47.5527 47.5651 47.1954 46.5034 43.2842 46.0504C41.8049 45.8811 37.7791 45.4646 36.2861 44.6089C35.8968 44.3847 35.622 43.9316 35.4342 43.3779L30.9459 44.3115L26.4438 43.3779C26.2515 43.9316 25.9812 44.3893 25.5919 44.6135C24.0943 45.4692 20.0686 45.8811 18.5893 46.055C14.6826 46.508 14.3253 47.5697 13.8994 50.384C13.5559 52.64 13.5422 55.6556 13.5422 55.6556H48.3313C48.3313 55.6556 48.3175 52.64 47.974 50.384L47.9786 50.3794Z" fill="#6B3F4C"/>
<path d="M35.4479 43.3779L30.9459 44.3115L34.051 47.8076L35.8143 44.165C35.8143 44.165 35.5716 43.7257 35.4479 43.3779Z" fill="#1BAC91"/>
<path d="M26.4438 43.3806C26.3201 43.7329 26.0774 44.1676 26.0774 44.1676L27.8361 47.8057L30.9413 44.3095L26.4392 43.376L26.4438 43.3806Z" fill="#1BAC91"/>
</g>
</svg>
