<svg width="54" height="53" viewBox="0 0 54 53" fill="none" xmlns="http://www.w3.org/2000/svg">
<path d="M37.2305 50.8251C50.6688 45.2057 57.0035 29.7653 51.3793 16.3382C45.7552 2.91098 30.302 -3.41842 16.8636 2.20104C3.4253 7.8205 -2.90936 23.2609 2.71477 36.688C8.33891 50.1152 23.7921 56.4446 37.2305 50.8251Z" fill="#6B3F4C"/>
<path d="M45.121 47.777C44.6802 44.8649 44.3106 43.7664 40.2682 43.2976C38.7375 43.1224 34.5719 42.6915 33.0223 41.8061C31.4726 40.9206 31.7191 36.498 31.7191 36.498H23.26C23.26 36.498 23.5064 40.9206 21.9567 41.8061C20.4071 42.6915 16.2415 43.1177 14.7108 43.2976C10.6684 43.7664 10.2988 44.8649 9.85805 47.777C9.50263 50.1114 9.4884 53.2318 9.4884 53.2318H45.4859C45.4859 53.2318 45.4717 50.1114 45.1162 47.777H45.121Z" fill="#F4C297"/>
<path d="M22.3264 41.4948C25.1271 41.5611 29.8472 40.8935 31.7617 38.5543V38.5449C31.7238 38.1376 31.7096 37.7494 31.7049 37.4227C31.7049 37.3138 31.7049 37.2143 31.7049 37.1196V37.1101C31.7049 37.0202 31.7049 36.9397 31.7049 36.8687V36.8592C31.7049 36.7882 31.7049 36.7266 31.7096 36.6745C31.7096 36.6177 31.7096 36.5798 31.7096 36.5514C31.7096 36.5467 31.7096 36.5514 31.7096 36.5419C31.7096 36.5183 31.7096 36.5088 31.7096 36.5088H23.2505C23.2505 36.5088 23.4543 40.1785 22.3217 41.4995L22.3264 41.4948Z" fill="#EDB380"/>
<path d="M37.0125 25.4546H36.8229C36.9035 24.8059 36.984 24.1714 37.0646 23.5701C37.4721 20.4497 38.3868 11.3252 27.4871 11.3252C16.5874 11.3252 17.502 20.4449 17.9095 23.5701C17.9901 24.1714 18.0707 24.8107 18.1465 25.4546H17.9569C16.2983 24.2282 16.1609 27.4291 16.8527 28.5277C17.4262 29.4368 17.4404 29.5315 17.7816 30.5306C18.0375 31.2645 18.4593 31.364 18.8147 31.2835C18.8573 31.7191 18.8953 32.0979 18.9237 32.401C19.0753 34.0819 23.1272 37.4533 24.0418 38.5092C24.8996 39.4988 26.3355 39.1105 26.7952 39.0916C27.2596 39.0679 27.4823 39.0585 27.4823 39.0585C27.4823 39.0585 27.7051 39.0679 28.1695 39.0916C28.6292 39.1153 30.0651 39.4988 30.9228 38.5092C31.8422 37.4533 35.8893 34.0819 36.041 32.401C36.0694 32.0979 36.1073 31.7191 36.15 31.2835C36.5054 31.364 36.9272 31.2645 37.1831 30.5306C37.529 29.5315 37.5385 29.4368 38.1119 28.5277C38.8038 27.4339 38.6664 24.233 37.0077 25.4546H37.0125Z" fill="#F4C297"/>
<path d="M27.0465 11.3389C16.6254 11.5898 17.5116 20.4917 17.9144 23.5695C17.995 24.1709 18.0756 24.8101 18.1514 25.4541H17.9618C16.3032 24.2277 16.1657 27.4286 16.8576 28.5271C17.431 29.4363 17.4453 29.531 17.7865 30.5301C18.0424 31.264 18.4642 31.3635 18.8196 31.283C18.8622 31.7186 18.9001 32.0974 18.9286 32.4004C19.0802 34.0814 23.1321 37.4527 24.0467 38.5087C24.9045 39.4983 26.3404 39.11 26.8001 39.0911C26.8948 39.0911 26.9707 39.0816 27.0417 39.0816V11.3389H27.0465Z" fill="#EDB88A"/>
<path d="M36.6428 24.4226C36.6428 24.9767 35.6476 29.3329 35.4818 30.725C35.1643 33.3672 33.2687 34.5936 32.7142 35.2044C32.1597 35.8105 30.3352 36.4213 29.5628 36.6959C28.7903 36.9706 26.1933 36.9706 25.4161 36.6959C24.6389 36.4213 22.8144 35.8105 22.2647 35.2044C21.7102 34.5983 19.8146 33.3672 19.4971 30.725C19.3313 29.3329 18.3361 24.9767 18.3361 24.4226C18.3361 24.0533 18.156 24.1906 18.047 24.6121C18.0802 24.8914 18.1181 25.1708 18.1513 25.4549C18.1513 25.4549 18.7199 31.3027 18.8194 31.279C18.8621 31.7146 18.9 32.0935 18.9285 32.3965C18.9427 32.5433 18.9948 32.7043 19.0611 32.8747C19.2649 33.1967 19.5872 33.7176 19.9947 34.3379C21.3027 35.9525 23.4163 37.7803 24.0513 38.5047C24.9091 39.4944 26.345 39.1061 26.8047 39.0871C27.2691 39.0635 27.4918 39.054 27.4918 39.054C27.4918 39.054 27.7146 39.0635 28.179 39.0871C28.6387 39.1108 30.0746 39.4944 30.9323 38.5047C31.5626 37.7755 33.681 35.9525 34.9889 34.3379C35.3917 33.7176 35.714 33.1967 35.9178 32.8747C35.9841 32.7043 36.0362 32.5433 36.0505 32.3965C36.0789 32.0935 36.1168 31.7146 36.1595 31.279C36.259 31.3027 36.8277 25.4549 36.8277 25.4549C36.8656 25.1708 36.8987 24.8914 36.9319 24.6121C36.8229 24.1859 36.6428 24.0533 36.6428 24.4226Z" fill="#582D11"/>
<path d="M30.3827 33.7522C29.1648 32.6489 27.4919 32.3506 27.4919 32.3506C27.4919 32.3506 25.819 32.6442 24.6011 33.7522C23.3832 34.8602 24.6011 36.8489 24.6011 36.8489L24.8712 36.5032C23.5585 33.8421 27.4966 33.6811 27.4966 33.6811C27.4966 33.6811 31.4348 33.8421 30.1221 36.5032L30.3922 36.8489C30.3922 36.8489 31.6101 34.8602 30.3922 33.7522H30.3827Z" fill="#582D11"/>
<path d="M28.3734 36.7023C27.9943 36.3329 27.4872 36.3945 27.4872 36.3945C27.4872 36.3945 26.9801 36.3329 26.601 36.7023C26.2219 37.0716 25.4115 36.797 25.4115 36.797L27.0465 38.137L27.4919 37.6966L27.9374 38.137L29.5723 36.797C29.5723 36.797 28.762 37.0716 28.3829 36.7023H28.3734Z" fill="#582D11"/>
<path d="M35.2592 8.98633C35.2592 8.98633 35.6999 10.2127 26.4068 10.2127C26.4068 10.2127 26.3973 10.2127 26.3925 10.2127C26.203 10.2127 25.9897 10.2174 25.767 10.2317C16.8719 10.6199 17.36 19.0815 17.36 19.0815H17.3695C17.3031 21.2028 17.7439 23.3288 18.1514 25.4549L18.3362 24.4226C18.3362 24.4226 18.431 23.3951 18.8386 22.1451C18.8575 22.0788 18.886 22.0125 18.9049 21.9462C19.0281 21.6005 19.175 21.2407 19.3456 20.8808C21.7625 16.07 27.4873 17.6373 27.4873 17.6373C27.4873 17.6373 33.212 16.0652 35.6289 20.8903C35.7995 21.2407 35.9416 21.5911 36.0601 21.932C36.0838 22.0078 36.1122 22.0788 36.1359 22.1545C36.5435 23.4046 36.6383 24.4274 36.6383 24.4274L36.8183 25.4596C37.0743 24.1291 37.3444 22.7985 37.496 21.4632C37.496 21.4537 37.496 21.449 37.496 21.4395C38.5007 14.3701 35.2497 8.98633 35.2497 8.98633H35.2592Z" fill="#582D11"/>
<path d="M33.1928 41.2658C33.1928 40.4372 32.8137 39.7695 31.7427 39.7695C31.7427 39.7695 30.2689 40.1436 27.5155 40.1294C25.4114 40.1199 23.2362 39.7695 23.2362 39.7695C22.1652 39.7695 21.7813 40.4419 21.7813 41.2658C21.7813 42.0944 21.7197 42.7621 22.7907 42.7621C22.7907 42.7621 25.672 43.122 27.5866 43.122C29.5011 43.122 32.1787 42.7621 32.1787 42.7621C33.2497 42.7621 33.1881 42.0897 33.1881 41.2658H33.1928Z" fill="#E6511C"/>
<path d="M45.1209 47.7769C44.6802 44.8649 44.3105 43.7663 40.2682 43.2976C38.7612 43.1224 34.7093 42.7057 33.1075 41.8486C32.9938 42.1422 32.7474 42.7672 32.1882 42.7672C32.1882 42.7672 29.5722 43.5675 27.5961 43.5675C25.6199 43.5675 22.8002 42.7672 22.8002 42.7672C22.241 42.7672 21.9898 42.1422 21.8808 41.8534C20.2743 42.7104 16.2272 43.1271 14.7202 43.3023C10.6778 43.7711 10.3082 44.8696 9.86744 47.7817C9.51202 50.1161 9.4978 53.2365 9.4978 53.2365H45.4953C45.4953 53.2365 45.4811 50.1161 45.1256 47.7817L45.1209 47.7769Z" fill="#1BAC91"/>
<path d="M36.1549 42.7294C34.9512 42.5068 33.7948 42.218 33.103 41.8486C32.9892 42.1422 32.7428 42.3221 32.1836 42.3221C32.1836 42.3221 29.5677 42.682 27.5915 42.682C25.6153 42.682 22.7956 42.3221 22.7956 42.3221C22.2364 42.3221 21.9852 42.1375 21.8763 41.8486C21.1796 42.218 20.028 42.5068 18.8243 42.7294L27.492 52.1332L36.1596 42.7294H36.1549Z" fill="#FFDD6A"/>
</svg>
