<svg width="55" height="55" viewBox="0 0 55 55" fill="none" xmlns="http://www.w3.org/2000/svg">
<path d="M54.5927 27.0181C54.5927 41.9241 42.4988 54.008 27.5804 54.008C12.662 54.008 0.568115 41.9241 0.568115 27.0181C0.568115 12.1122 12.662 0.0283203 27.5804 0.0283203C42.4988 0.0283203 54.5927 12.1122 54.5927 27.0181Z" fill="#6B3F4C"/>
<mask id="mask0_1330_18018" style="mask-type:luminance" maskUnits="userSpaceOnUse" x="0" y="0" width="55" height="55">
<path d="M54.5927 27.0181C54.5927 41.9241 42.4988 54.008 27.5804 54.008C12.662 54.008 0.568115 41.9241 0.568115 27.0181C0.568115 12.1122 12.662 0.0283203 27.5804 0.0283203C42.4988 0.0283203 54.5927 12.1122 54.5927 27.0181Z" fill="white"/>
</mask>
<g mask="url(#mask0_1330_18018)">
<path d="M54.5927 27.0181C54.5927 41.9241 42.4988 54.008 27.5804 54.008C12.662 54.008 0.568115 41.9241 0.568115 27.0181C0.568115 12.1122 12.662 0.0283203 27.5804 0.0283203C42.4988 0.0283203 54.5927 12.1122 54.5927 27.0181Z" fill="#6B3F4C"/>
<path d="M46.0852 48.6891C45.629 45.707 45.2553 44.5772 41.1157 44.1019C39.5481 43.9225 35.2823 43.4813 33.7002 42.5793C32.1132 41.6726 32.3656 37.1436 32.3656 37.1436H23.7028C23.7028 37.1436 23.9552 41.6726 22.3682 42.5793C20.7812 43.4861 16.5154 43.9225 14.9478 44.1019C10.8081 44.582 10.4296 45.707 9.97827 48.6891C9.61429 51.0797 9.59973 54.2753 9.59973 54.2753H46.4638C46.4638 54.2753 46.4492 51.0797 46.0852 48.6891Z" fill="#F4C297"/>
<path d="M22.7467 42.2496C25.6149 42.3175 30.4485 41.6338 32.4092 39.2383C32.4092 39.2383 32.4092 39.2335 32.4092 39.2286C32.3703 38.8068 32.3558 38.414 32.3509 38.0794C32.3509 37.9679 32.3509 37.8661 32.3509 37.7691V37.7594C32.3509 37.6673 32.3509 37.5848 32.3509 37.5121V37.5024C32.3509 37.4297 32.3509 37.3666 32.3558 37.3133C32.3558 37.2551 32.3558 37.2163 32.3558 37.1872C32.3558 37.1872 32.3558 37.1872 32.3558 37.1775C32.3558 37.1581 32.3558 37.1436 32.3558 37.1436H23.693C23.693 37.1436 23.9017 40.9016 22.7418 42.2545L22.7467 42.2496Z" fill="#EDB380"/>
<path d="M37.7864 25.8309H37.5923C37.6748 25.1714 37.7573 24.5168 37.8398 23.901C38.2571 20.7054 39.1938 11.3613 28.0317 11.3613C16.8696 11.3613 17.8062 20.7054 18.2236 23.901C18.3013 24.5168 18.3838 25.1714 18.4663 25.8309H18.2721C16.5736 24.575 16.4328 27.8529 17.1414 28.9731C17.7286 29.9041 17.7383 30.0011 18.0926 31.0242C18.3546 31.7807 18.7866 31.8777 19.1505 31.7952C19.1991 32.2413 19.2331 32.6293 19.267 32.9396C19.4223 34.661 23.5669 38.1184 24.5084 39.1949C25.3868 40.2083 26.8572 39.8156 27.328 39.7913C27.8036 39.7671 28.0317 39.7574 28.0317 39.7574C28.0317 39.7574 28.2598 39.7671 28.7305 39.7913C29.2013 39.8156 30.6718 40.2083 31.5502 39.1949C32.4917 38.1135 36.6362 34.661 36.7915 32.9396C36.8206 32.6293 36.8595 32.2413 36.9031 31.7952C37.2671 31.8777 37.699 31.7758 37.9611 31.0242C38.3154 30.0011 38.3251 29.9041 38.9123 28.9731C39.6209 27.8529 39.4753 24.575 37.7815 25.8309H37.7864Z" fill="#F4C297"/>
<path d="M18.2236 23.9C18.3013 24.5158 18.3838 25.1704 18.4663 25.8299H18.2721C16.5736 24.574 16.4328 27.8519 17.1414 28.9721C17.7286 29.9031 17.7383 30.0001 18.0926 31.0232C18.3546 31.7797 18.7866 31.8767 19.1505 31.7942C19.1991 32.2403 19.2331 32.6283 19.267 32.9386C19.4223 34.66 23.5669 38.1174 24.5084 39.1939C25.3868 40.2073 26.8572 39.8146 27.328 39.7903C27.8036 39.7661 28.0317 39.7564 28.0317 39.7564V11.3555C16.8696 11.3555 17.8062 20.6996 18.2236 23.8951V23.9Z" fill="#EDB88A"/>
<path d="M19.3399 29.8109C19.3399 29.8109 19.1895 24.9813 19.6408 24.2248C20.0921 23.4683 24.0231 20.525 24.4017 18.8666C24.6395 17.8144 22.7419 12.3301 22.7419 12.3301C22.7419 12.3301 17.5491 12.3301 17.554 20.5783C17.554 22.0573 18.4663 25.825 18.4663 25.825C18.4663 25.825 19.1118 28.1477 19.3399 29.8061V29.8109Z" fill="#E6511C"/>
<path d="M36.7187 29.811C36.7187 29.811 36.8692 24.9813 36.4179 24.2249C35.9617 23.4684 24.785 20.525 24.4065 18.8667C24.1638 17.8144 22.7467 12.3302 22.7467 12.3302C22.7467 12.3302 23.6057 11.1761 26.0662 10.8657C31.4289 10.1869 38.1358 11.7483 38.5047 20.5832C38.5678 22.0622 37.5923 25.8299 37.5923 25.8299C37.5923 25.8299 36.9468 28.1526 36.7187 29.811Z" fill="#E6511C"/>
<path d="M14.9478 44.0969C10.8081 44.577 10.4296 45.702 9.97827 48.6841C9.61429 51.0747 9.59973 54.2702 9.59973 54.2702H28.0318V45.702C24.2755 45.6874 20.2474 43.292 20.2474 43.292C18.3693 43.7236 16.0252 43.9709 14.9478 44.0969Z" fill="#C2A721"/>
<path d="M46.0852 48.6871C45.6339 45.7049 45.2553 44.5751 41.1157 44.0999C40.0431 43.9738 37.6942 43.7313 35.8161 43.2949C35.8161 43.2949 31.788 45.6904 28.0317 45.7049V54.2732H46.4637C46.4637 54.2732 46.4492 51.0776 46.0852 48.6871Z" fill="#C2A721"/>
</g>
</svg>
